%FSLAX34Y34*%
%MOMM*%
%LNCOPPER_TOP*%
G71*
G01*
%ADD10C,1.600*%
%ADD11C,0.250*%
%ADD12C,1.000*%
%ADD13C,0.500*%
%ADD14C,1.000*%
%ADD15C,1.400*%
%ADD16C,1.800*%
%ADD17C,0.880*%
%ADD18C,1.280*%
%ADD19C,0.286*%
%ADD20R,1.600X7.000*%
%ADD21C,0.191*%
%LPD*%
X700000Y672500D02*
G54D10*
D03*
X760000Y672500D02*
G54D10*
D03*
X862500Y262500D02*
G54D10*
D03*
X862500Y202500D02*
G54D10*
D03*
X862500Y365000D02*
G54D10*
D03*
X862500Y305000D02*
G54D10*
D03*
X495000Y220000D02*
G54D10*
D03*
X495000Y160000D02*
G54D10*
D03*
X492500Y332500D02*
G54D10*
D03*
X492500Y272500D02*
G54D10*
D03*
X495000Y445000D02*
G54D10*
D03*
X495000Y385000D02*
G54D10*
D03*
X495000Y557500D02*
G54D10*
D03*
X495000Y497500D02*
G54D10*
D03*
X495000Y672500D02*
G54D10*
D03*
X495000Y612500D02*
G54D10*
D03*
X495000Y790000D02*
G54D10*
D03*
X495000Y730000D02*
G54D10*
D03*
X497500Y902500D02*
G54D10*
D03*
X497500Y842500D02*
G54D10*
D03*
X497500Y1012500D02*
G54D10*
D03*
X497500Y952500D02*
G54D10*
D03*
X597500Y1025000D02*
G54D10*
D03*
X597500Y965000D02*
G54D10*
D03*
X1115000Y695000D02*
G54D10*
D03*
X1115000Y635000D02*
G54D10*
D03*
X255000Y1015000D02*
G54D10*
D03*
X255000Y955000D02*
G54D10*
D03*
X255000Y900000D02*
G54D10*
D03*
X255000Y840000D02*
G54D10*
D03*
X255000Y787500D02*
G54D10*
D03*
X255000Y727500D02*
G54D10*
D03*
X255000Y672500D02*
G54D10*
D03*
X255000Y612500D02*
G54D10*
D03*
X252500Y560000D02*
G54D10*
D03*
X252500Y500000D02*
G54D10*
D03*
X252500Y447500D02*
G54D10*
D03*
X252500Y387500D02*
G54D10*
D03*
X252500Y335000D02*
G54D10*
D03*
X252500Y275000D02*
G54D10*
D03*
X252500Y222500D02*
G54D10*
D03*
X252500Y162500D02*
G54D10*
D03*
X830000Y320000D02*
G54D10*
D03*
X830000Y200000D02*
G54D10*
D03*
G54D11*
X444900Y272500D02*
X444900Y259950D01*
X457200Y247650D01*
X457200Y209550D01*
X444500Y196850D01*
X444500Y157900D01*
X444900Y157500D01*
G54D11*
X419500Y272500D02*
X419500Y263125D01*
X431800Y250825D01*
X431800Y209550D01*
X419100Y196850D01*
X419100Y157900D01*
X419500Y157500D01*
G54D11*
X394100Y272500D02*
X394100Y263125D01*
X406400Y250825D01*
X406400Y209550D01*
X393700Y196850D01*
X393700Y157900D01*
X394100Y157500D01*
G54D11*
X368700Y272500D02*
X368700Y263125D01*
X381000Y250825D01*
X381000Y209550D01*
X368300Y196850D01*
X368300Y157900D01*
X368700Y157500D01*
G54D11*
X343300Y272500D02*
X343300Y263125D01*
X355600Y250825D01*
X355600Y209550D01*
X342900Y196850D01*
X342900Y157900D01*
X343300Y157500D01*
G54D11*
X292500Y272500D02*
X292500Y263125D01*
X304800Y250825D01*
X304800Y209550D01*
X292100Y196850D01*
X292100Y157900D01*
X292500Y157500D01*
G54D11*
X292500Y382500D02*
X292500Y373125D01*
X304800Y360825D01*
X304800Y319550D01*
X292100Y306850D01*
X292100Y267900D01*
X292500Y267500D01*
G54D11*
X343300Y382500D02*
X343300Y373125D01*
X355600Y360825D01*
X355600Y319550D01*
X342900Y306850D01*
X342900Y267900D01*
X343300Y267500D01*
G54D11*
X368700Y382500D02*
X368700Y373125D01*
X381000Y360825D01*
X381000Y319550D01*
X368300Y306850D01*
X368300Y267900D01*
X368700Y267500D01*
G54D11*
X394100Y382500D02*
X394100Y373125D01*
X406400Y360825D01*
X406400Y319550D01*
X393700Y306850D01*
X393700Y267900D01*
X394100Y267500D01*
G54D11*
X419500Y382500D02*
X419500Y373125D01*
X431800Y360825D01*
X431800Y319550D01*
X419100Y306850D01*
X419100Y267900D01*
X419500Y267500D01*
G54D11*
X444900Y382500D02*
X444900Y373125D01*
X457200Y360825D01*
X457200Y319550D01*
X444500Y306850D01*
X444500Y267900D01*
X444900Y267500D01*
G54D11*
X292500Y497500D02*
X292500Y488125D01*
X304800Y475825D01*
X304800Y434550D01*
X292100Y421850D01*
X292100Y382900D01*
X292500Y382500D01*
G54D11*
X343300Y497500D02*
X343300Y488125D01*
X355600Y475825D01*
X355600Y434550D01*
X342900Y421850D01*
X342900Y382900D01*
X343300Y382500D01*
G54D11*
X368700Y497500D02*
X368700Y488125D01*
X381000Y475825D01*
X381000Y434550D01*
X368300Y421850D01*
X368300Y382900D01*
X368700Y382500D01*
G54D11*
X394100Y497500D02*
X394100Y488125D01*
X406400Y475825D01*
X406400Y434550D01*
X393700Y421850D01*
X393700Y382900D01*
X394100Y382500D01*
G54D11*
X419500Y497500D02*
X419500Y488125D01*
X431800Y475825D01*
X431800Y434550D01*
X419100Y421850D01*
X419100Y382900D01*
X419500Y382500D01*
G54D11*
X444900Y497500D02*
X444900Y488125D01*
X457200Y475825D01*
X457200Y434550D01*
X444500Y421850D01*
X444500Y382900D01*
X444900Y382500D01*
G54D11*
X295000Y610000D02*
X295000Y600625D01*
X307300Y588325D01*
X307300Y547050D01*
X294600Y534350D01*
X294600Y495400D01*
X295000Y495000D01*
G54D11*
X345800Y610000D02*
X345800Y600625D01*
X358100Y588325D01*
X358100Y547050D01*
X345400Y534350D01*
X345400Y495400D01*
X345800Y495000D01*
G54D11*
X371200Y610000D02*
X371200Y600625D01*
X383500Y588325D01*
X383500Y547050D01*
X370800Y534350D01*
X370800Y495400D01*
X371200Y495000D01*
G54D11*
X396600Y610000D02*
X396600Y600625D01*
X408900Y588325D01*
X408900Y547050D01*
X396200Y534350D01*
X396200Y495400D01*
X396600Y495000D01*
G54D11*
X422000Y610000D02*
X422000Y600625D01*
X434300Y588325D01*
X434300Y547050D01*
X421600Y534350D01*
X421600Y495400D01*
X422000Y495000D01*
G54D11*
X447400Y610000D02*
X447400Y600625D01*
X459700Y588325D01*
X459700Y547050D01*
X447000Y534350D01*
X447000Y495400D01*
X447400Y495000D01*
G54D11*
X295000Y725000D02*
X295000Y715625D01*
X307300Y703325D01*
X307300Y662050D01*
X294600Y649350D01*
X294600Y610400D01*
X295000Y610000D01*
G54D11*
X345800Y725000D02*
X345800Y715625D01*
X358100Y703325D01*
X358100Y662050D01*
X345400Y649350D01*
X345400Y610400D01*
X345800Y610000D01*
G54D11*
X371200Y725000D02*
X371200Y715625D01*
X383500Y703325D01*
X383500Y662050D01*
X370800Y649350D01*
X370800Y610400D01*
X371200Y610000D01*
G54D11*
X396600Y725000D02*
X396600Y715625D01*
X408900Y703325D01*
X408900Y662050D01*
X396200Y649350D01*
X396200Y610400D01*
X396600Y610000D01*
G54D11*
X422000Y725000D02*
X422000Y715625D01*
X434300Y703325D01*
X434300Y662050D01*
X421600Y649350D01*
X421600Y610400D01*
X422000Y610000D01*
G54D11*
X447400Y725000D02*
X447400Y715625D01*
X459700Y703325D01*
X459700Y662050D01*
X447000Y649350D01*
X447000Y610400D01*
X447400Y610000D01*
G54D11*
X295000Y837500D02*
X295000Y828125D01*
X307300Y815825D01*
X307300Y774550D01*
X294600Y761850D01*
X294600Y722900D01*
X295000Y722500D01*
G54D11*
X345800Y837500D02*
X345800Y828125D01*
X358100Y815825D01*
X358100Y774550D01*
X345400Y761850D01*
X345400Y722900D01*
X345800Y722500D01*
G54D11*
X371200Y837500D02*
X371200Y828125D01*
X383500Y815825D01*
X383500Y774550D01*
X370800Y761850D01*
X370800Y722900D01*
X371200Y722500D01*
G54D11*
X396600Y837500D02*
X396600Y828125D01*
X408900Y815825D01*
X408900Y774550D01*
X396200Y761850D01*
X396200Y722900D01*
X396600Y722500D01*
G54D11*
X422000Y837500D02*
X422000Y828125D01*
X434300Y815825D01*
X434300Y774550D01*
X421600Y761850D01*
X421600Y722900D01*
X422000Y722500D01*
G54D11*
X447400Y837500D02*
X447400Y828125D01*
X459700Y815825D01*
X459700Y774550D01*
X447000Y761850D01*
X447000Y722900D01*
X447400Y722500D01*
G54D11*
X295000Y952500D02*
X295000Y943125D01*
X307300Y930825D01*
X307300Y889550D01*
X294600Y876850D01*
X294600Y837900D01*
X295000Y837500D01*
G54D11*
X345800Y952500D02*
X345800Y943125D01*
X358100Y930825D01*
X358100Y889550D01*
X345400Y876850D01*
X345400Y837900D01*
X345800Y837500D01*
G54D11*
X371200Y952500D02*
X371200Y943125D01*
X383500Y930825D01*
X383500Y889550D01*
X370800Y876850D01*
X370800Y837900D01*
X371200Y837500D01*
G54D11*
X396600Y952500D02*
X396600Y943125D01*
X408900Y930825D01*
X408900Y889550D01*
X396200Y876850D01*
X396200Y837900D01*
X396600Y837500D01*
G54D11*
X422000Y952500D02*
X422000Y943125D01*
X434300Y930825D01*
X434300Y889550D01*
X421600Y876850D01*
X421600Y837900D01*
X422000Y837500D01*
G54D11*
X447400Y952500D02*
X447400Y943125D01*
X459700Y930825D01*
X459700Y889550D01*
X447000Y876850D01*
X447000Y837900D01*
X447400Y837500D01*
G54D11*
X42500Y952500D02*
X42500Y943125D01*
X54800Y930825D01*
X54800Y889550D01*
X42100Y876850D01*
X42100Y837900D01*
X42500Y837500D01*
G54D11*
X93300Y952500D02*
X93300Y943125D01*
X105600Y930825D01*
X105600Y889550D01*
X92900Y876850D01*
X92900Y837900D01*
X93300Y837500D01*
G54D11*
X118700Y952500D02*
X118700Y943125D01*
X131000Y930825D01*
X131000Y889550D01*
X118300Y876850D01*
X118300Y837900D01*
X118700Y837500D01*
G54D11*
X144100Y952500D02*
X144100Y943125D01*
X156400Y930825D01*
X156400Y889550D01*
X143700Y876850D01*
X143700Y837900D01*
X144100Y837500D01*
G54D11*
X169500Y952500D02*
X169500Y943125D01*
X181800Y930825D01*
X181800Y889550D01*
X169100Y876850D01*
X169100Y837900D01*
X169500Y837500D01*
G54D11*
X194900Y952500D02*
X194900Y943125D01*
X207200Y930825D01*
X207200Y889550D01*
X194500Y876850D01*
X194500Y837900D01*
X194900Y837500D01*
G54D11*
X40000Y840000D02*
X40000Y830625D01*
X52300Y818325D01*
X52300Y777050D01*
X39600Y764350D01*
X39600Y725400D01*
X40000Y725000D01*
G54D11*
X90800Y840000D02*
X90800Y830625D01*
X103100Y818325D01*
X103100Y777050D01*
X90400Y764350D01*
X90400Y725400D01*
X90800Y725000D01*
G54D11*
X116200Y840000D02*
X116200Y830625D01*
X128500Y818325D01*
X128500Y777050D01*
X115800Y764350D01*
X115800Y725400D01*
X116200Y725000D01*
G54D11*
X141600Y840000D02*
X141600Y830625D01*
X153900Y818325D01*
X153900Y777050D01*
X141200Y764350D01*
X141200Y725400D01*
X141600Y725000D01*
G54D11*
X167000Y840000D02*
X167000Y830625D01*
X179300Y818325D01*
X179300Y777050D01*
X166600Y764350D01*
X166600Y725400D01*
X167000Y725000D01*
G54D11*
X192400Y840000D02*
X192400Y830625D01*
X204700Y818325D01*
X204700Y777050D01*
X192000Y764350D01*
X192000Y725400D01*
X192400Y725000D01*
G54D11*
X40000Y725000D02*
X40000Y715625D01*
X52300Y703325D01*
X52300Y662050D01*
X39600Y649350D01*
X39600Y610400D01*
X40000Y610000D01*
G54D11*
X90800Y725000D02*
X90800Y715625D01*
X103100Y703325D01*
X103100Y662050D01*
X90400Y649350D01*
X90400Y610400D01*
X90800Y610000D01*
G54D11*
X116200Y725000D02*
X116200Y715625D01*
X128500Y703325D01*
X128500Y662050D01*
X115800Y649350D01*
X115800Y610400D01*
X116200Y610000D01*
G54D11*
X141600Y725000D02*
X141600Y715625D01*
X153900Y703325D01*
X153900Y662050D01*
X141200Y649350D01*
X141200Y610400D01*
X141600Y610000D01*
G54D11*
X167000Y725000D02*
X167000Y715625D01*
X179300Y703325D01*
X179300Y662050D01*
X166600Y649350D01*
X166600Y610400D01*
X167000Y610000D01*
G54D11*
X192400Y725000D02*
X192400Y715625D01*
X204700Y703325D01*
X204700Y662050D01*
X192000Y649350D01*
X192000Y610400D01*
X192400Y610000D01*
G54D11*
X40000Y612500D02*
X40000Y603125D01*
X52300Y590825D01*
X52300Y549550D01*
X39600Y536850D01*
X39600Y497900D01*
X40000Y497500D01*
G54D11*
X90800Y612500D02*
X90800Y603125D01*
X103100Y590825D01*
X103100Y549550D01*
X90400Y536850D01*
X90400Y497900D01*
X90800Y497500D01*
G54D11*
X116200Y612500D02*
X116200Y603125D01*
X128500Y590825D01*
X128500Y549550D01*
X115800Y536850D01*
X115800Y497900D01*
X116200Y497500D01*
G54D11*
X141600Y612500D02*
X141600Y603125D01*
X153900Y590825D01*
X153900Y549550D01*
X141200Y536850D01*
X141200Y497900D01*
X141600Y497500D01*
G54D11*
X167000Y612500D02*
X167000Y603125D01*
X179300Y590825D01*
X179300Y549550D01*
X166600Y536850D01*
X166600Y497900D01*
X167000Y497500D01*
G54D11*
X192400Y612500D02*
X192400Y603125D01*
X204700Y590825D01*
X204700Y549550D01*
X192000Y536850D01*
X192000Y497900D01*
X192400Y497500D01*
G54D11*
X36825Y497500D02*
X36825Y488125D01*
X49125Y475825D01*
X49125Y434550D01*
X36425Y421850D01*
X36425Y382900D01*
X36825Y382500D01*
G54D11*
X87625Y497500D02*
X87625Y488125D01*
X99925Y475825D01*
X99925Y434550D01*
X87225Y421850D01*
X87225Y382900D01*
X87625Y382500D01*
G54D11*
X113025Y497500D02*
X113025Y488125D01*
X125325Y475825D01*
X125325Y434550D01*
X112625Y421850D01*
X112625Y382900D01*
X113025Y382500D01*
G54D11*
X138425Y497500D02*
X138425Y488125D01*
X150725Y475825D01*
X150725Y434550D01*
X138025Y421850D01*
X138025Y382900D01*
X138425Y382500D01*
G54D11*
X163825Y497500D02*
X163825Y488125D01*
X176125Y475825D01*
X176125Y434550D01*
X163425Y421850D01*
X163425Y382900D01*
X163825Y382500D01*
G54D11*
X189225Y497500D02*
X189225Y488125D01*
X201525Y475825D01*
X201525Y434550D01*
X188825Y421850D01*
X188825Y382900D01*
X189225Y382500D01*
G54D11*
X35000Y385000D02*
X35000Y375625D01*
X47300Y363325D01*
X47300Y322050D01*
X34600Y309350D01*
X34600Y270400D01*
X35000Y270000D01*
G54D11*
X85800Y385000D02*
X85800Y375625D01*
X98100Y363325D01*
X98100Y322050D01*
X85400Y309350D01*
X85400Y270400D01*
X85800Y270000D01*
G54D11*
X111200Y385000D02*
X111200Y375625D01*
X123500Y363325D01*
X123500Y322050D01*
X110800Y309350D01*
X110800Y270400D01*
X111200Y270000D01*
G54D11*
X136600Y385000D02*
X136600Y375625D01*
X148900Y363325D01*
X148900Y322050D01*
X136200Y309350D01*
X136200Y270400D01*
X136600Y270000D01*
G54D11*
X162000Y385000D02*
X162000Y375625D01*
X174300Y363325D01*
X174300Y322050D01*
X161600Y309350D01*
X161600Y270400D01*
X162000Y270000D01*
G54D11*
X187400Y385000D02*
X187400Y375625D01*
X199700Y363325D01*
X199700Y322050D01*
X187000Y309350D01*
X187000Y270400D01*
X187400Y270000D01*
G54D11*
X37500Y272500D02*
X37500Y263125D01*
X49800Y250825D01*
X49800Y209550D01*
X37100Y196850D01*
X37100Y157900D01*
X37500Y157500D01*
G54D11*
X88300Y272500D02*
X88300Y263125D01*
X100600Y250825D01*
X100600Y209550D01*
X87900Y196850D01*
X87900Y157900D01*
X88300Y157500D01*
G54D11*
X113700Y272500D02*
X113700Y263125D01*
X126000Y250825D01*
X126000Y209550D01*
X113300Y196850D01*
X113300Y157900D01*
X113700Y157500D01*
G54D11*
X139100Y272500D02*
X139100Y263125D01*
X151400Y250825D01*
X151400Y209550D01*
X138700Y196850D01*
X138700Y157900D01*
X139100Y157500D01*
G54D11*
X164500Y272500D02*
X164500Y263125D01*
X176800Y250825D01*
X176800Y209550D01*
X164100Y196850D01*
X164100Y157900D01*
X164500Y157500D01*
G54D11*
X189900Y272500D02*
X189900Y263125D01*
X202200Y250825D01*
X202200Y209550D01*
X189500Y196850D01*
X189500Y157900D01*
X189900Y157500D01*
X238125Y82550D02*
G54D12*
D03*
X431800Y133350D02*
G54D12*
D03*
X454025Y120650D02*
G54D12*
D03*
X73025Y196850D02*
G54D12*
D03*
X330200Y196850D02*
G54D12*
D03*
X330200Y311150D02*
G54D12*
D03*
X76200Y311150D02*
G54D12*
D03*
X76200Y422275D02*
G54D12*
D03*
X327025Y422275D02*
G54D12*
D03*
X330200Y533400D02*
G54D12*
D03*
X76200Y536575D02*
G54D12*
D03*
X76200Y650875D02*
G54D12*
D03*
X330200Y647700D02*
G54D12*
D03*
X336550Y765175D02*
G54D12*
D03*
X76200Y765175D02*
G54D12*
D03*
X79375Y879475D02*
G54D12*
D03*
X333375Y876300D02*
G54D12*
D03*
X336550Y987425D02*
G54D12*
D03*
X82550Y990600D02*
G54D12*
D03*
X479425Y111125D02*
G54D12*
D03*
X508000Y107950D02*
G54D12*
D03*
X584200Y152400D02*
G54D12*
D03*
X571500Y231775D02*
G54D12*
D03*
X530225Y193675D02*
G54D12*
D03*
X530225Y307975D02*
G54D12*
D03*
X555625Y282575D02*
G54D12*
D03*
X590550Y257175D02*
G54D12*
D03*
X660400Y231775D02*
G54D12*
D03*
X644525Y107950D02*
G54D12*
D03*
X695325Y95250D02*
G54D12*
D03*
X720725Y92075D02*
G54D12*
D03*
X771525Y95250D02*
G54D12*
D03*
X717550Y193675D02*
G54D12*
D03*
X790575Y247650D02*
G54D12*
D03*
X803275Y222250D02*
G54D12*
D03*
X701675Y282575D02*
G54D12*
D03*
X723900Y330200D02*
G54D12*
D03*
X593725Y333375D02*
G54D12*
D03*
X822325Y95250D02*
G54D12*
D03*
X850900Y92075D02*
G54D12*
D03*
X873125Y92075D02*
G54D12*
D03*
X898525Y92075D02*
G54D12*
D03*
X923925Y92075D02*
G54D12*
D03*
X946150Y95250D02*
G54D12*
D03*
X962025Y104775D02*
G54D12*
D03*
X974725Y123825D02*
G54D12*
D03*
X1000125Y139700D02*
G54D12*
D03*
X936625Y149225D02*
G54D12*
D03*
X911225Y149225D02*
G54D12*
D03*
X860425Y142875D02*
G54D12*
D03*
X873125Y133350D02*
G54D12*
D03*
X819150Y257175D02*
G54D12*
D03*
X1057275Y177800D02*
G54D12*
D03*
X1066800Y168275D02*
G54D12*
D03*
X1089025Y168275D02*
G54D12*
D03*
X1114425Y193675D02*
G54D12*
D03*
X1076325Y142875D02*
G54D12*
D03*
X1054100Y111125D02*
G54D12*
D03*
X1050925Y92075D02*
G54D12*
D03*
X1152525Y88900D02*
G54D12*
D03*
X1141412Y292100D02*
G54D12*
D03*
X1154112Y280988D02*
G54D12*
D03*
X1160462Y268288D02*
G54D12*
D03*
X1168400Y87312D02*
G54D12*
D03*
X1165225Y103188D02*
G54D12*
D03*
X1174750Y114300D02*
G54D12*
D03*
X1177925Y128588D02*
G54D12*
D03*
X1231900Y176212D02*
G54D12*
D03*
X1268412Y239712D02*
G54D12*
D03*
X1281112Y231775D02*
G54D12*
D03*
X1190625Y196850D02*
G54D12*
D03*
X1179512Y206375D02*
G54D12*
D03*
X1168400Y219075D02*
G54D12*
D03*
X1062038Y238125D02*
G54D12*
D03*
X1039812Y228600D02*
G54D12*
D03*
X1027112Y212725D02*
G54D12*
D03*
X1000125Y214312D02*
G54D12*
D03*
X990600Y234950D02*
G54D12*
D03*
X974725Y242888D02*
G54D12*
D03*
X1370012Y234950D02*
G54D12*
D03*
X1370012Y219075D02*
G54D12*
D03*
X1370012Y206375D02*
G54D12*
D03*
X1373188Y322262D02*
G54D12*
D03*
X1319212Y341312D02*
G54D12*
D03*
X1304925Y327025D02*
G54D12*
D03*
X1065212Y341312D02*
G54D12*
D03*
X1003300Y341312D02*
G54D12*
D03*
X903288Y307975D02*
G54D12*
D03*
X1090612Y398462D02*
G54D12*
D03*
X1131888Y379412D02*
G54D12*
D03*
X760412Y436562D02*
G54D12*
D03*
X733425Y428625D02*
G54D12*
D03*
X817562Y450850D02*
G54D12*
D03*
X822325Y349250D02*
G54D12*
D03*
X847725Y355600D02*
G54D12*
D03*
X812800Y498475D02*
G54D12*
D03*
X798512Y527050D02*
G54D12*
D03*
X863600Y479425D02*
G54D12*
D03*
X887412Y471488D02*
G54D12*
D03*
X915988Y481012D02*
G54D12*
D03*
X939800Y508000D02*
G54D12*
D03*
X952500Y469900D02*
G54D12*
D03*
X990600Y482600D02*
G54D12*
D03*
X977900Y444500D02*
G54D12*
D03*
X1016000Y504825D02*
G54D12*
D03*
X977900Y517525D02*
G54D12*
D03*
X1027112Y482600D02*
G54D12*
D03*
X1041400Y493712D02*
G54D12*
D03*
X1104900Y492125D02*
G54D12*
D03*
X1128712Y493712D02*
G54D12*
D03*
X1166812Y436562D02*
G54D12*
D03*
X1192212Y468312D02*
G54D12*
D03*
X1360488Y392112D02*
G54D12*
D03*
X1323975Y496888D02*
G54D12*
D03*
X1306512Y515938D02*
G54D12*
D03*
X1270000Y466725D02*
G54D12*
D03*
X1244600Y479425D02*
G54D12*
D03*
X1281112Y439738D02*
G54D12*
D03*
X1336675Y534988D02*
G54D12*
D03*
X1077912Y531812D02*
G54D12*
D03*
X1052512Y542925D02*
G54D12*
D03*
X1014412Y647700D02*
G54D12*
D03*
X1082675Y644525D02*
G54D12*
D03*
X1155700Y644525D02*
G54D12*
D03*
X1208088Y642938D02*
G54D12*
D03*
X1271588Y654050D02*
G54D12*
D03*
X1296988Y663575D02*
G54D12*
D03*
X1336675Y652462D02*
G54D12*
D03*
X1360488Y681038D02*
G54D12*
D03*
X1068388Y711200D02*
G54D12*
D03*
X1131888Y742950D02*
G54D12*
D03*
X1168400Y752475D02*
G54D12*
D03*
X1181100Y842962D02*
G54D12*
D03*
X1125538Y820738D02*
G54D12*
D03*
X1096962Y774700D02*
G54D12*
D03*
X1042988Y831850D02*
G54D12*
D03*
X1011238Y852488D02*
G54D12*
D03*
X1095375Y925512D02*
G54D12*
D03*
X1144588Y920750D02*
G54D12*
D03*
X1195388Y898525D02*
G54D12*
D03*
X1222375Y893762D02*
G54D12*
D03*
X1257300Y1047750D02*
G54D12*
D03*
X1357312Y1049338D02*
G54D12*
D03*
X1411288Y990600D02*
G54D12*
D03*
X1384300Y976312D02*
G54D12*
D03*
X1171575Y985838D02*
G54D12*
D03*
X1222375Y976312D02*
G54D12*
D03*
X1031875Y947738D02*
G54D12*
D03*
X838200Y947738D02*
G54D12*
D03*
X890588Y947738D02*
G54D12*
D03*
X839788Y835025D02*
G54D12*
D03*
X827088Y831850D02*
G54D12*
D03*
X815975Y860425D02*
G54D12*
D03*
X903288Y800100D02*
G54D12*
D03*
X979488Y795338D02*
G54D12*
D03*
X750888Y966788D02*
G54D12*
D03*
X725488Y933450D02*
G54D12*
D03*
X676275Y895350D02*
G54D12*
D03*
X776288Y812800D02*
G54D12*
D03*
X611188Y895350D02*
G54D12*
D03*
X569912Y985838D02*
G54D12*
D03*
X569912Y1060450D02*
G54D12*
D03*
X547688Y1049338D02*
G54D12*
D03*
X523875Y939800D02*
G54D12*
D03*
X538162Y928688D02*
G54D12*
D03*
X511175Y920750D02*
G54D12*
D03*
X581025Y849312D02*
G54D12*
D03*
X244475Y1057275D02*
G54D12*
D03*
X547688Y352425D02*
G54D12*
D03*
X582612Y384175D02*
G54D12*
D03*
X574675Y433388D02*
G54D12*
D03*
X531812Y420688D02*
G54D12*
D03*
X671512Y407988D02*
G54D12*
D03*
X530225Y534988D02*
G54D12*
D03*
X571500Y482600D02*
G54D12*
D03*
X571500Y546100D02*
G54D12*
D03*
X595312Y573088D02*
G54D12*
D03*
X625475Y622300D02*
G54D12*
D03*
X630238Y685800D02*
G54D12*
D03*
X577850Y685800D02*
G54D12*
D03*
X533400Y647700D02*
G54D12*
D03*
X796925Y608012D02*
G54D12*
D03*
X796925Y546100D02*
G54D12*
D03*
X887412Y595312D02*
G54D12*
D03*
X938212Y593725D02*
G54D12*
D03*
X952500Y546100D02*
G54D12*
D03*
X652462Y508000D02*
G54D12*
D03*
X647700Y544512D02*
G54D12*
D03*
X658812Y582612D02*
G54D12*
D03*
X671512Y609600D02*
G54D12*
D03*
X657225Y647700D02*
G54D12*
D03*
X709612Y703262D02*
G54D12*
D03*
X723900Y684212D02*
G54D12*
D03*
X749300Y695325D02*
G54D12*
D03*
X788988Y703262D02*
G54D12*
D03*
X762000Y746125D02*
G54D12*
D03*
X738188Y779462D02*
G54D12*
D03*
X700088Y758825D02*
G54D12*
D03*
X684212Y765175D02*
G54D12*
D03*
X658812Y754062D02*
G54D12*
D03*
X647700Y736600D02*
G54D12*
D03*
X635000Y774700D02*
G54D12*
D03*
X615950Y706438D02*
G54D12*
D03*
X601662Y784225D02*
G54D12*
D03*
X581025Y765175D02*
G54D12*
D03*
X836612Y771525D02*
G54D12*
D03*
X806450Y736600D02*
G54D12*
D03*
X836612Y744538D02*
G54D12*
D03*
X852488Y744538D02*
G54D12*
D03*
X876300Y776288D02*
G54D12*
D03*
X860425Y820738D02*
G54D12*
D03*
X869950Y658812D02*
G54D12*
D03*
X884238Y344488D02*
G54D12*
D03*
G54D11*
X912812Y76200D02*
X912812Y119062D01*
X933450Y139700D01*
X933450Y146050D01*
X936625Y149225D01*
G54D11*
X885825Y74612D02*
X885825Y119062D01*
X909638Y142875D01*
X909638Y147638D01*
X911225Y149225D01*
G54D11*
X962025Y104775D02*
X962025Y111125D01*
X974725Y123825D01*
G54D11*
X1050925Y92075D02*
X1050925Y107950D01*
X1054100Y111125D01*
G54D13*
X1152525Y88900D02*
X1152525Y122525D01*
X1217500Y187500D01*
X1217500Y263700D01*
X1192038Y263700D01*
X1173162Y284162D01*
X1172375Y350838D01*
X1192500Y366200D01*
X950912Y203200D02*
G54D12*
D03*
G54D11*
X431800Y133350D02*
X431800Y71438D01*
X427038Y66675D01*
G54D11*
X454025Y65088D02*
X454025Y120650D01*
G54D11*
X479425Y65088D02*
X479425Y111125D01*
G54D11*
X503238Y61912D02*
X503238Y103188D01*
X508000Y107950D01*
G54D11*
X590550Y257175D02*
X590550Y211950D01*
X609300Y193200D01*
G54D11*
X593725Y333375D02*
X593725Y287338D01*
X598488Y282575D01*
X617538Y282575D01*
X622300Y277812D01*
X622300Y96838D01*
X606425Y80962D01*
X606425Y68262D01*
G54D11*
X595312Y573088D02*
X595312Y522988D01*
X609300Y509000D01*
G54D11*
X609300Y636000D02*
X612187Y636000D01*
X628650Y652462D01*
X628650Y684212D01*
X630238Y685800D01*
G54D11*
X577850Y685800D02*
X577850Y668338D01*
X588962Y657225D01*
X588962Y630938D01*
X609300Y610600D01*
G54D11*
X581025Y765175D02*
X581025Y849312D01*
G54D11*
X609300Y661400D02*
X608600Y661400D01*
X595312Y674688D01*
X595312Y698500D01*
X603250Y706438D01*
X603250Y779462D01*
X601662Y784225D01*
G54D11*
X598488Y920750D02*
X598488Y817562D01*
X587375Y806450D01*
X587375Y776288D01*
X593725Y769938D01*
X593725Y768350D01*
X596900Y765175D01*
X596900Y715962D01*
X587375Y706438D01*
X565150Y706438D01*
X558800Y712788D01*
X558800Y721200D01*
X557500Y722500D01*
G54D11*
X598488Y920750D02*
X600075Y920750D01*
X614362Y935038D01*
X614362Y990600D01*
X620712Y1000125D01*
X620712Y1011238D02*
G54D12*
D03*
G54D11*
X620712Y1011238D02*
X620712Y1000125D01*
G54D11*
X582612Y384175D02*
X582612Y265112D01*
X579438Y261938D01*
X579438Y244475D01*
X582612Y241300D01*
X582612Y153988D01*
X584200Y152400D01*
G54D11*
X582612Y384175D02*
X582612Y403225D01*
X587375Y407988D01*
X587375Y579438D01*
X585788Y581025D01*
X585788Y582612D01*
X579438Y588962D01*
X579438Y655638D01*
X558800Y676275D01*
X558800Y721200D01*
X557500Y722500D01*
G54D11*
X625475Y622300D02*
X625475Y282575D01*
X628650Y279400D01*
X628650Y93662D01*
X633412Y88900D01*
X633412Y74612D01*
G54D11*
X701675Y282575D02*
X701675Y149225D01*
X722312Y128588D01*
X722312Y92075D01*
G54D13*
X1114425Y193675D02*
X1114425Y288325D01*
X1116100Y290000D01*
G54D13*
X1115000Y695000D02*
X1115000Y660975D01*
X1098550Y644525D01*
X1098550Y591050D01*
X1119450Y570150D01*
G54D13*
X1115000Y695000D02*
X1115000Y756225D01*
X1125538Y766762D01*
X1125538Y820738D01*
G54D13*
X1247500Y942500D02*
X1247500Y1018700D01*
G54D13*
X877500Y1022400D02*
X877500Y902900D01*
X860425Y885825D01*
X860425Y820738D01*
G54D13*
X860425Y820738D02*
X860425Y763588D01*
X866775Y757238D01*
X866775Y730250D01*
X854075Y717550D01*
X854075Y697775D01*
X852500Y696200D01*
G54D13*
X762000Y419500D02*
X767162Y419500D01*
X776288Y428625D01*
X776288Y635212D01*
X763250Y648250D01*
X763250Y669250D01*
X760000Y672500D01*
G54D13*
X700000Y672500D02*
X693138Y672500D01*
X673100Y660400D01*
X673100Y611188D01*
X671512Y609600D01*
X671512Y407988D01*
X671512Y255987D01*
X685800Y241700D01*
G54D13*
X673100Y471488D02*
X686012Y471488D01*
X687050Y470450D01*
G54D13*
X789900Y722500D02*
X789900Y762912D01*
X804862Y777875D01*
X804862Y815975D01*
X789900Y835000D01*
X789900Y870862D01*
X814388Y895350D01*
X814388Y946588D01*
X815300Y947500D01*
G54D13*
X637500Y798700D02*
X636400Y798700D01*
X623888Y811212D01*
X623888Y897588D01*
X637500Y911200D01*
X637500Y913488D01*
X623888Y927100D01*
X623888Y977900D01*
X638175Y992188D01*
X638175Y1023025D01*
X637500Y1023700D01*
G54D14*
X597500Y1025000D02*
X636200Y1025000D01*
X637500Y1023700D01*
X637500Y1028025D01*
X655638Y1046162D01*
X1220038Y1046162D01*
X1247500Y1018700D01*
G54D14*
X877500Y1022400D02*
X877500Y1045775D01*
G54D14*
X928300Y1022400D02*
X928300Y1045775D01*
X928688Y1046162D01*
G54D14*
X42500Y1028700D02*
X42500Y1028338D01*
X14288Y1000125D01*
X14288Y69850D01*
X12700Y68262D01*
X264238Y68262D01*
X265200Y67300D01*
G54D14*
X14288Y234950D02*
X36250Y234950D01*
X37500Y236200D01*
G54D14*
X14288Y349250D02*
X36950Y349250D01*
X37500Y348700D01*
G54D14*
X14288Y461962D02*
X39238Y461962D01*
X40000Y461200D01*
G54D14*
X14288Y574675D02*
X39025Y574675D01*
X40000Y573700D01*
G54D14*
X15875Y688975D02*
X39725Y688975D01*
X40000Y688700D01*
G54D14*
X14288Y801688D02*
X39512Y801688D01*
X40000Y801200D01*
G54D14*
X14288Y915988D02*
X39788Y915988D01*
X40000Y916200D01*
G54D14*
X255000Y1015000D02*
X255000Y1011825D01*
X277812Y989012D01*
X271462Y146050D01*
X296862Y122238D01*
X296862Y90488D01*
X265200Y67300D01*
G54D14*
X255000Y900000D02*
X276112Y900000D01*
X276225Y900112D01*
G54D14*
X276225Y787400D02*
X255100Y787400D01*
X255000Y787500D01*
G54D14*
X274638Y673100D02*
X255600Y673100D01*
X255000Y672500D01*
G54D14*
X274638Y560388D02*
X252888Y560388D01*
X252500Y560000D01*
G54D14*
X273050Y447675D02*
X252675Y447675D01*
X252500Y447500D01*
G54D14*
X273050Y334962D02*
X252538Y334962D01*
X252500Y335000D01*
G54D14*
X271462Y223838D02*
X253838Y223838D01*
X252500Y222500D01*
G54D13*
X252500Y162500D02*
X252500Y115800D01*
X265112Y103188D01*
X265112Y92788D01*
X265200Y92700D01*
G54D13*
X215300Y160000D02*
X215300Y161325D01*
X228600Y174625D01*
X234950Y938212D01*
X234588Y938212D01*
X220300Y952500D01*
G54D11*
X244475Y1057275D02*
X236538Y109538D01*
X236538Y84138D01*
X238125Y82550D01*
G54D13*
X217800Y840000D02*
X233150Y840000D01*
X233362Y839788D01*
G54D13*
X233362Y725488D02*
X218288Y725488D01*
X217800Y725000D01*
G54D13*
X231775Y612775D02*
X218075Y612775D01*
X217800Y612500D01*
G54D13*
X230188Y498475D02*
X218775Y498475D01*
X217800Y497500D01*
G54D13*
X230188Y385762D02*
X218562Y385762D01*
X217800Y385000D01*
G54D13*
X228600Y273050D02*
X215850Y273050D01*
X215300Y272500D01*
G54D11*
X215300Y348700D02*
X215300Y320075D01*
X204788Y309562D01*
X203200Y260350D01*
X215900Y247650D01*
X215900Y236800D01*
X215300Y236200D01*
G54D11*
X189900Y348700D02*
X189900Y320075D01*
X179388Y309562D01*
X177800Y260350D01*
X190500Y247650D01*
X190500Y236800D01*
X189900Y236200D01*
G54D11*
X164500Y348700D02*
X164500Y320075D01*
X153988Y309562D01*
X152400Y260350D01*
X165100Y247650D01*
X165100Y236800D01*
X164500Y236200D01*
G54D11*
X139100Y348700D02*
X139100Y320075D01*
X128588Y309562D01*
X127000Y260350D01*
X139700Y247650D01*
X139700Y236800D01*
X139100Y236200D01*
G54D11*
X113700Y348700D02*
X113700Y320075D01*
X103188Y309562D01*
X101600Y260350D01*
X114300Y247650D01*
X114300Y236800D01*
X113700Y236200D01*
G54D11*
X62900Y348700D02*
X62900Y320075D01*
X52388Y309562D01*
X50800Y260350D01*
X63500Y247650D01*
X63500Y236800D01*
X62900Y236200D01*
G54D11*
X317900Y348700D02*
X317900Y320075D01*
X307388Y309562D01*
X305800Y260350D01*
X318500Y247650D01*
X318500Y236800D01*
X317900Y236200D01*
G54D11*
X368700Y348700D02*
X368700Y320075D01*
X358188Y309562D01*
X356600Y260350D01*
X369300Y247650D01*
X369300Y236800D01*
X368700Y236200D01*
G54D11*
X394100Y348700D02*
X394100Y320075D01*
X383588Y309562D01*
X382000Y260350D01*
X394700Y247650D01*
X394700Y236800D01*
X394100Y236200D01*
G54D11*
X419500Y348700D02*
X419500Y320075D01*
X408988Y309562D01*
X407400Y260350D01*
X420100Y247650D01*
X420100Y236800D01*
X419500Y236200D01*
G54D11*
X444900Y348700D02*
X444900Y320075D01*
X434388Y309562D01*
X432800Y260350D01*
X445500Y247650D01*
X445500Y236800D01*
X444900Y236200D01*
G54D11*
X470300Y348700D02*
X470300Y320075D01*
X459788Y309562D01*
X458200Y260350D01*
X470900Y247650D01*
X470900Y236800D01*
X470300Y236200D01*
G54D11*
X65400Y461200D02*
X65400Y432575D01*
X49888Y419562D01*
X50800Y375350D01*
X66000Y360150D01*
X66000Y349300D01*
X65400Y348700D01*
G54D11*
X116200Y461200D02*
X116200Y432575D01*
X103188Y419562D01*
X101600Y375350D01*
X116800Y360150D01*
X116800Y349300D01*
X116200Y348700D01*
G54D11*
X141600Y461200D02*
X141600Y432575D01*
X128588Y419562D01*
X127000Y375350D01*
X142200Y360150D01*
X142200Y349300D01*
X141600Y348700D01*
G54D11*
X167000Y461200D02*
X167000Y432575D01*
X153988Y419562D01*
X152400Y375350D01*
X167600Y360150D01*
X167600Y349300D01*
X167000Y348700D01*
G54D11*
X192400Y461200D02*
X192400Y432575D01*
X179388Y419562D01*
X177800Y375350D01*
X193000Y360150D01*
X193000Y349300D01*
X192400Y348700D01*
G54D11*
X217800Y461200D02*
X217800Y432575D01*
X204788Y419562D01*
X203200Y375350D01*
X218400Y360150D01*
X218400Y349300D01*
X217800Y348700D01*
G54D11*
X317900Y458700D02*
X317900Y430075D01*
X307388Y419562D01*
X305800Y370350D01*
X318500Y357650D01*
X318500Y346800D01*
X317900Y346200D01*
G54D11*
X368700Y458700D02*
X368700Y430075D01*
X358188Y419562D01*
X356600Y370350D01*
X369300Y357650D01*
X369300Y346800D01*
X368700Y346200D01*
G54D11*
X394100Y458700D02*
X394100Y430075D01*
X383588Y419562D01*
X382000Y370350D01*
X394700Y357650D01*
X394700Y346800D01*
X394100Y346200D01*
G54D11*
X419500Y458700D02*
X419500Y430075D01*
X408988Y419562D01*
X407400Y370350D01*
X420100Y357650D01*
X420100Y346800D01*
X419500Y346200D01*
G54D11*
X444900Y458700D02*
X444900Y430075D01*
X434388Y419562D01*
X432800Y370350D01*
X445500Y357650D01*
X445500Y346800D01*
X444900Y346200D01*
G54D11*
X470300Y458700D02*
X470300Y430075D01*
X459788Y419562D01*
X458200Y370350D01*
X470900Y357650D01*
X470900Y346800D01*
X470300Y346200D01*
G54D11*
X470300Y573700D02*
X470300Y545075D01*
X459788Y534562D01*
X458200Y485350D01*
X470900Y472650D01*
X470900Y461800D01*
X470300Y461200D01*
G54D11*
X444900Y573700D02*
X444900Y545075D01*
X434388Y534562D01*
X432800Y485350D01*
X445500Y472650D01*
X445500Y461800D01*
X444900Y461200D01*
G54D11*
X419500Y573700D02*
X419500Y545075D01*
X408988Y534562D01*
X407400Y485350D01*
X420100Y472650D01*
X420100Y461800D01*
X419500Y461200D01*
G54D11*
X394100Y573700D02*
X394100Y545075D01*
X383588Y534562D01*
X382000Y485350D01*
X394700Y472650D01*
X394700Y461800D01*
X394100Y461200D01*
G54D11*
X368700Y573700D02*
X368700Y545075D01*
X358188Y534562D01*
X356600Y485350D01*
X369300Y472650D01*
X369300Y461800D01*
X368700Y461200D01*
G54D11*
X317900Y573700D02*
X317900Y545075D01*
X307388Y534562D01*
X305800Y485350D01*
X318500Y472650D01*
X318500Y461800D01*
X317900Y461200D01*
G54D11*
X217800Y573700D02*
X217800Y545075D01*
X207288Y534562D01*
X205700Y485350D01*
X218400Y472650D01*
X218400Y461800D01*
X217800Y461200D01*
G54D11*
X192400Y573700D02*
X192400Y545075D01*
X181888Y534562D01*
X180300Y485350D01*
X193000Y472650D01*
X193000Y461800D01*
X192400Y461200D01*
G54D11*
X167000Y573700D02*
X167000Y545075D01*
X156488Y534562D01*
X154900Y485350D01*
X167600Y472650D01*
X167600Y461800D01*
X167000Y461200D01*
G54D11*
X141600Y573700D02*
X141600Y545075D01*
X131088Y534562D01*
X129500Y485350D01*
X142200Y472650D01*
X142200Y461800D01*
X141600Y461200D01*
G54D11*
X116200Y573700D02*
X116200Y545075D01*
X105688Y534562D01*
X104100Y485350D01*
X116800Y472650D01*
X116800Y461800D01*
X116200Y461200D01*
G54D11*
X65400Y573700D02*
X65400Y545075D01*
X54888Y534562D01*
X53300Y485350D01*
X66000Y472650D01*
X66000Y461800D01*
X65400Y461200D01*
G54D11*
X217800Y688700D02*
X217800Y660075D01*
X207288Y649562D01*
X205700Y600350D01*
X218400Y587650D01*
X218400Y576800D01*
X217800Y576200D01*
G54D11*
X192400Y688700D02*
X192400Y660075D01*
X181888Y649562D01*
X180300Y600350D01*
X193000Y587650D01*
X193000Y576800D01*
X192400Y576200D01*
G54D11*
X167000Y688700D02*
X167000Y660075D01*
X156488Y649562D01*
X154900Y600350D01*
X167600Y587650D01*
X167600Y576800D01*
X167000Y576200D01*
G54D11*
X141600Y688700D02*
X141600Y660075D01*
X131088Y649562D01*
X129500Y600350D01*
X142200Y587650D01*
X142200Y576800D01*
X141600Y576200D01*
G54D11*
X116200Y688700D02*
X116200Y660075D01*
X105688Y649562D01*
X104100Y600350D01*
X116800Y587650D01*
X116800Y576800D01*
X116200Y576200D01*
G54D11*
X65400Y688700D02*
X65400Y660075D01*
X54888Y649562D01*
X53300Y600350D01*
X66000Y587650D01*
X66000Y576800D01*
X65400Y576200D01*
G54D11*
X472800Y686200D02*
X472800Y657575D01*
X462288Y647062D01*
X460700Y597850D01*
X473400Y585150D01*
X473400Y574300D01*
X472800Y573700D01*
G54D11*
X447400Y686200D02*
X447400Y657575D01*
X436888Y647062D01*
X435300Y597850D01*
X448000Y585150D01*
X448000Y574300D01*
X447400Y573700D01*
G54D11*
X422000Y686200D02*
X422000Y657575D01*
X411488Y647062D01*
X409900Y597850D01*
X422600Y585150D01*
X422600Y574300D01*
X422000Y573700D01*
G54D11*
X396600Y686200D02*
X396600Y657575D01*
X386088Y647062D01*
X384500Y597850D01*
X397200Y585150D01*
X397200Y574300D01*
X396600Y573700D01*
G54D11*
X371200Y686200D02*
X371200Y657575D01*
X360688Y647062D01*
X359100Y597850D01*
X371800Y585150D01*
X371800Y574300D01*
X371200Y573700D01*
G54D11*
X320400Y686200D02*
X320400Y657575D01*
X309888Y647062D01*
X308300Y597850D01*
X321000Y585150D01*
X321000Y574300D01*
X320400Y573700D01*
G54D11*
X472800Y801200D02*
X472800Y772575D01*
X462288Y762062D01*
X460700Y712850D01*
X473400Y700150D01*
X473400Y689300D01*
X472800Y688700D01*
G54D11*
X447400Y801200D02*
X447400Y772575D01*
X436888Y762062D01*
X435300Y712850D01*
X448000Y700150D01*
X448000Y689300D01*
X447400Y688700D01*
G54D11*
X422000Y801200D02*
X422000Y772575D01*
X411488Y762062D01*
X409900Y712850D01*
X422600Y700150D01*
X422600Y689300D01*
X422000Y688700D01*
G54D11*
X396600Y801200D02*
X396600Y772575D01*
X386088Y762062D01*
X384500Y712850D01*
X397200Y700150D01*
X397200Y689300D01*
X396600Y688700D01*
G54D11*
X371200Y801200D02*
X371200Y772575D01*
X360688Y762062D01*
X359100Y712850D01*
X371800Y700150D01*
X371800Y689300D01*
X371200Y688700D01*
G54D11*
X320400Y801200D02*
X320400Y772575D01*
X309888Y762062D01*
X308300Y712850D01*
X321000Y700150D01*
X321000Y689300D01*
X320400Y688700D01*
G54D11*
X217800Y801200D02*
X217800Y772575D01*
X207288Y762062D01*
X205700Y712850D01*
X218400Y700150D01*
X218400Y689300D01*
X217800Y688700D01*
G54D11*
X192400Y801200D02*
X192400Y772575D01*
X181888Y762062D01*
X180300Y712850D01*
X193000Y700150D01*
X193000Y689300D01*
X192400Y688700D01*
G54D11*
X167000Y801200D02*
X167000Y772575D01*
X156488Y762062D01*
X154900Y712850D01*
X167600Y700150D01*
X167600Y689300D01*
X167000Y688700D01*
G54D11*
X141600Y801200D02*
X141600Y772575D01*
X131088Y762062D01*
X129500Y712850D01*
X142200Y700150D01*
X142200Y689300D01*
X141600Y688700D01*
G54D11*
X116200Y801200D02*
X116200Y772575D01*
X105688Y762062D01*
X104100Y712850D01*
X116800Y700150D01*
X116800Y689300D01*
X116200Y688700D01*
G54D11*
X65400Y801200D02*
X65400Y772575D01*
X54888Y762062D01*
X53300Y712850D01*
X66000Y700150D01*
X66000Y689300D01*
X65400Y688700D01*
G54D11*
X217800Y916200D02*
X217800Y887575D01*
X207288Y877062D01*
X205700Y827850D01*
X218400Y815150D01*
X218400Y804300D01*
X217800Y803700D01*
G54D11*
X192400Y916200D02*
X192400Y887575D01*
X181888Y877062D01*
X180300Y827850D01*
X193000Y815150D01*
X193000Y804300D01*
X192400Y803700D01*
G54D11*
X167000Y916200D02*
X167000Y887575D01*
X156488Y877062D01*
X154900Y827850D01*
X167600Y815150D01*
X167600Y804300D01*
X167000Y803700D01*
G54D11*
X141600Y916200D02*
X141600Y887575D01*
X131088Y877062D01*
X129500Y827850D01*
X142200Y815150D01*
X142200Y804300D01*
X141600Y803700D01*
G54D11*
X116200Y916200D02*
X116200Y887575D01*
X105688Y877062D01*
X104100Y827850D01*
X116800Y815150D01*
X116800Y804300D01*
X116200Y803700D01*
G54D11*
X65400Y916200D02*
X65400Y887575D01*
X54888Y877062D01*
X53300Y827850D01*
X66000Y815150D01*
X66000Y804300D01*
X65400Y803700D01*
G54D11*
X472800Y913700D02*
X472800Y885075D01*
X462288Y874562D01*
X460700Y825350D01*
X473400Y812650D01*
X473400Y801800D01*
X472800Y801200D01*
G54D11*
X447400Y913700D02*
X447400Y885075D01*
X436888Y874562D01*
X435300Y825350D01*
X448000Y812650D01*
X448000Y801800D01*
X447400Y801200D01*
G54D11*
X422000Y913700D02*
X422000Y885075D01*
X411488Y874562D01*
X409900Y825350D01*
X422600Y812650D01*
X422600Y801800D01*
X422000Y801200D01*
G54D11*
X396600Y913700D02*
X396600Y885075D01*
X386088Y874562D01*
X384500Y825350D01*
X397200Y812650D01*
X397200Y801800D01*
X396600Y801200D01*
G54D11*
X371200Y913700D02*
X371200Y885075D01*
X360688Y874562D01*
X359100Y825350D01*
X371800Y812650D01*
X371800Y801800D01*
X371200Y801200D01*
G54D11*
X320400Y913700D02*
X320400Y885075D01*
X309888Y874562D01*
X308300Y825350D01*
X321000Y812650D01*
X321000Y801800D01*
X320400Y801200D01*
G54D11*
X472800Y1028700D02*
X472800Y1000075D01*
X462288Y989562D01*
X460700Y940350D01*
X473400Y927650D01*
X473400Y916800D01*
X472800Y916200D01*
G54D11*
X447400Y1028700D02*
X447400Y1000075D01*
X436888Y989562D01*
X435300Y940350D01*
X448000Y927650D01*
X448000Y916800D01*
X447400Y916200D01*
G54D11*
X422000Y1028700D02*
X422000Y1000075D01*
X411488Y989562D01*
X409900Y940350D01*
X422600Y927650D01*
X422600Y916800D01*
X422000Y916200D01*
G54D11*
X396600Y1028700D02*
X396600Y1000075D01*
X386088Y989562D01*
X384500Y940350D01*
X397200Y927650D01*
X397200Y916800D01*
X396600Y916200D01*
G54D11*
X371200Y1028700D02*
X371200Y1000075D01*
X360688Y989562D01*
X359100Y940350D01*
X371800Y927650D01*
X371800Y916800D01*
X371200Y916200D01*
G54D11*
X320400Y1028700D02*
X320400Y1000075D01*
X309888Y989562D01*
X308300Y940350D01*
X321000Y927650D01*
X321000Y916800D01*
X320400Y916200D01*
G54D11*
X220300Y1028700D02*
X220300Y1000075D01*
X209788Y989562D01*
X208200Y940350D01*
X220900Y927650D01*
X220900Y916800D01*
X220300Y916200D01*
G54D11*
X194900Y1028700D02*
X194900Y1000075D01*
X184388Y989562D01*
X182800Y940350D01*
X195500Y927650D01*
X195500Y916800D01*
X194900Y916200D01*
G54D11*
X169500Y1028700D02*
X169500Y1000075D01*
X158988Y989562D01*
X157400Y940350D01*
X170100Y927650D01*
X170100Y916800D01*
X169500Y916200D01*
G54D11*
X144100Y1028700D02*
X144100Y1000075D01*
X133588Y989562D01*
X132000Y940350D01*
X144700Y927650D01*
X144700Y916800D01*
X144100Y916200D01*
G54D11*
X118700Y1028700D02*
X118700Y1000075D01*
X108188Y989562D01*
X106600Y940350D01*
X119300Y927650D01*
X119300Y916800D01*
X118700Y916200D01*
G54D11*
X67900Y1028700D02*
X67900Y1000075D01*
X57388Y989562D01*
X55800Y940350D01*
X68500Y927650D01*
X68500Y916800D01*
X67900Y916200D01*
G54D11*
X93300Y1028700D02*
X93300Y1001350D01*
X82550Y990600D01*
X80962Y990600D01*
X68262Y977900D01*
X68262Y952862D01*
X67900Y952500D01*
G54D11*
X345800Y1028700D02*
X345800Y996675D01*
X336550Y987425D01*
X320675Y971550D01*
X320675Y952775D01*
X320400Y952500D01*
G54D11*
X345800Y913700D02*
X345800Y888725D01*
X333375Y876300D01*
X320675Y863600D01*
X320675Y837775D01*
X320400Y837500D01*
G54D11*
X90800Y916200D02*
X90800Y890900D01*
X79375Y879475D01*
X66675Y866775D01*
X66675Y841275D01*
X65400Y840000D01*
G54D11*
X90800Y801200D02*
X90800Y779775D01*
X76200Y765175D01*
X63500Y752475D01*
X63500Y726900D01*
X65400Y725000D01*
G54D11*
X345800Y801200D02*
X345800Y774425D01*
X336550Y765175D01*
X334962Y765175D01*
X320675Y750888D01*
X320675Y725275D01*
X320400Y725000D01*
G54D11*
X90800Y688700D02*
X90800Y665475D01*
X76200Y650875D01*
X76200Y649288D01*
X65088Y638175D01*
X65088Y612812D01*
X65400Y612500D01*
G54D11*
X345800Y686200D02*
X345800Y663300D01*
X330200Y647700D01*
X317500Y635000D01*
X317500Y612900D01*
X320400Y610000D01*
G54D11*
X343300Y573700D02*
X343300Y546500D01*
X330200Y533400D01*
X319088Y522288D01*
X319088Y498688D01*
X317900Y497500D01*
G54D11*
X90800Y573700D02*
X90800Y551175D01*
X76200Y536575D01*
X65088Y525462D01*
X65088Y497812D01*
X65400Y497500D01*
G54D11*
X343300Y458700D02*
X343300Y438550D01*
X327025Y422275D01*
X319088Y414338D01*
X319088Y383688D01*
X317900Y382500D01*
G54D11*
X65400Y385000D02*
X65400Y411475D01*
X76200Y422275D01*
X76200Y423862D01*
X90488Y438150D01*
X90488Y460888D01*
X90800Y461200D01*
G54D11*
X62900Y272500D02*
X62900Y297850D01*
X76200Y311150D01*
X88900Y323850D01*
X88900Y348100D01*
X88300Y348700D01*
G54D11*
X330200Y311150D02*
X317500Y298450D01*
X317500Y272900D01*
X317900Y272500D01*
G54D11*
X330200Y311150D02*
X342900Y323850D01*
X342900Y348300D01*
X343300Y348700D01*
G54D11*
X62900Y160000D02*
X62900Y186725D01*
X73025Y196850D01*
X90488Y214312D01*
X90488Y234012D01*
X88300Y236200D01*
G54D11*
X343300Y233700D02*
X343300Y209950D01*
X330200Y196850D01*
X317500Y184150D01*
X317500Y157900D01*
X317900Y157500D01*
X485775Y762000D02*
G54D12*
D03*
X495300Y862012D02*
G54D12*
D03*
G54D13*
X497500Y952500D02*
X497500Y934425D01*
X511175Y920750D01*
X511175Y176175D01*
X495000Y160000D01*
G54D13*
X511175Y273050D02*
X493050Y273050D01*
X492500Y272500D01*
G54D13*
X511175Y384175D02*
X495825Y384175D01*
X495000Y385000D01*
G54D13*
X511175Y498475D02*
X495975Y498475D01*
X495000Y497500D01*
G54D13*
X511175Y614362D02*
X496863Y614362D01*
X495000Y612500D01*
G54D13*
X511175Y730250D02*
X495250Y730250D01*
X495000Y730000D01*
G54D13*
X511175Y844550D02*
X499550Y844550D01*
X497500Y842500D01*
G54D11*
X688300Y947500D02*
X688300Y947062D01*
X676275Y935038D01*
X676275Y895350D01*
G54D11*
X713700Y1023700D02*
X713700Y996275D01*
X738188Y971550D01*
X738188Y948412D01*
X739100Y947500D01*
G54D11*
X750888Y966788D02*
X750888Y924812D01*
X764500Y911200D01*
G54D11*
X725488Y933450D02*
X725488Y924812D01*
X739100Y911200D01*
X739100Y859512D01*
X739775Y858838D01*
X738188Y858838D01*
X725488Y846138D01*
X725488Y771525D01*
X750888Y746125D01*
X750888Y714375D01*
X736600Y700088D01*
X731838Y661988D01*
X731838Y430212D01*
X733425Y428625D01*
G54D11*
X738188Y427038D02*
X735012Y427038D01*
X733425Y428625D01*
X733425Y427038D01*
X738188Y422275D01*
X738188Y173038D01*
X771525Y139700D01*
X771525Y95250D01*
G54D11*
X713700Y1023700D02*
X713700Y996275D01*
X700088Y982662D01*
X700088Y758825D01*
X700088Y752475D01*
X712788Y739775D01*
X712788Y723412D01*
X713700Y722500D01*
G54D11*
X713700Y798700D02*
X713700Y765850D01*
X725488Y754062D01*
X725488Y714375D01*
X717550Y706438D01*
X712788Y706438D01*
X709612Y703262D01*
G54D11*
X762000Y746125D02*
X762000Y725000D01*
X764500Y722500D01*
G54D11*
X688300Y835000D02*
X688300Y798700D01*
G54D11*
X776288Y812800D02*
X776288Y876300D01*
X790575Y890588D01*
X790575Y910525D01*
X789900Y911200D01*
G54D11*
X647700Y736600D02*
X647700Y788988D01*
X649288Y790575D01*
X649288Y850900D01*
X661988Y863600D01*
X661988Y910288D01*
X662900Y911200D01*
G54D11*
X738188Y779462D02*
X739775Y779462D01*
X750888Y790575D01*
X750888Y821388D01*
X764500Y835000D01*
G54D11*
X658812Y754062D02*
X660400Y754062D01*
X663575Y750888D01*
X663575Y723175D01*
X662900Y722500D01*
G54D11*
X611188Y895350D02*
X611188Y711200D01*
X615950Y706438D01*
G54D11*
X533400Y647700D02*
X533400Y649288D01*
X519112Y663575D01*
X519112Y935038D01*
X523875Y939800D01*
G54D11*
X538162Y928688D02*
X533400Y928688D01*
X525462Y920750D01*
X525462Y668338D01*
X546100Y647700D01*
X546100Y633412D01*
X534988Y622300D01*
X534988Y539750D01*
X530225Y534988D01*
G54D11*
X547688Y1049338D02*
X547688Y873125D01*
X533400Y858838D01*
X533400Y669925D01*
X554038Y649288D01*
X554038Y630238D01*
X552450Y630238D01*
X542925Y620712D01*
X542925Y527050D01*
X534988Y519112D01*
X534988Y423862D01*
X531812Y420688D01*
G54D11*
X569912Y1060450D02*
X569912Y1027112D01*
X557212Y1014412D01*
X557212Y871538D01*
X539750Y854075D01*
X539750Y671512D01*
X560388Y650875D01*
X560388Y628650D01*
X549275Y617538D01*
X549275Y525462D01*
X542925Y519112D01*
X542925Y407988D01*
X528638Y393700D01*
X528638Y309562D01*
X530225Y307975D01*
G54D11*
X569912Y985838D02*
X569912Y871538D01*
X546100Y847725D01*
X546100Y677862D01*
X568325Y655638D01*
X568325Y625475D01*
X557212Y614362D01*
X557212Y522288D01*
X550862Y515938D01*
X550862Y404812D01*
X536575Y390525D01*
X536575Y331788D01*
X544512Y323850D01*
X544512Y301625D01*
X530225Y287338D01*
X530225Y193675D01*
G54D11*
X571500Y546100D02*
X571500Y522288D01*
X558800Y509588D01*
X558800Y363538D01*
X547688Y352425D01*
X547688Y333375D01*
X554038Y327025D01*
X554038Y296862D01*
X542925Y285750D01*
X542925Y98425D01*
X533400Y88900D01*
X533400Y73025D01*
X531812Y71438D01*
G54D11*
X571500Y482600D02*
X571500Y481012D01*
X565150Y474662D01*
X565150Y292100D01*
X555625Y282575D01*
X555625Y68262D01*
G54D11*
X574675Y433388D02*
X574675Y419100D01*
X571500Y415925D01*
X571500Y231775D01*
X571500Y100012D01*
X582612Y88900D01*
X582612Y69850D01*
G54D11*
X657225Y647700D02*
X657225Y679450D01*
X673100Y695325D01*
X674688Y820038D01*
X662900Y835000D01*
G54D11*
X635000Y774700D02*
X635000Y771525D01*
X622300Y758825D01*
X622300Y714375D01*
X639762Y696912D01*
X639762Y608012D01*
X633412Y601662D01*
X633412Y288925D01*
X636588Y285750D01*
X636588Y115888D01*
X644525Y107950D01*
G54D11*
X647700Y544512D02*
X647700Y541338D01*
X639762Y533400D01*
X639762Y293688D01*
X644525Y288925D01*
X644525Y141288D01*
X663575Y122238D01*
X663575Y92075D01*
X657225Y85725D01*
X657225Y68262D01*
X658812Y66675D01*
G54D11*
X652462Y508000D02*
X652462Y149225D01*
X684212Y117475D01*
X684212Y69850D01*
X681038Y66675D01*
G54D11*
X660400Y231775D02*
X660400Y153988D01*
X695325Y119062D01*
X695325Y95250D01*
G54D11*
X658812Y582612D02*
X658812Y573088D01*
X663575Y568325D01*
X663575Y244475D01*
X681038Y227012D01*
X681038Y152400D01*
X708025Y125412D01*
X708025Y55562D01*
X596900Y407988D02*
G54D12*
D03*
G54D11*
X687050Y648250D02*
X687050Y646450D01*
X701675Y631825D01*
X701675Y435375D01*
X685800Y419500D01*
X703262Y654050D02*
G54D12*
D03*
G54D11*
X703262Y654050D02*
X703262Y641350D01*
X708025Y636588D01*
X708025Y416325D01*
X685800Y394100D01*
X685800Y392113D01*
X701675Y376238D01*
X701675Y298450D01*
X711200Y288925D01*
X708025Y157162D01*
X735012Y130175D01*
X735012Y65088D01*
G54D11*
X723900Y330200D02*
X723900Y315912D01*
X731838Y307975D01*
X731838Y157162D01*
X760412Y128588D01*
X760412Y69850D01*
X758825Y68262D01*
G54D11*
X717550Y193675D02*
X717550Y303212D01*
X712788Y309562D01*
X712788Y412750D01*
X714375Y677862D01*
X703262Y690562D01*
X700088Y696912D01*
X698500Y711200D01*
X700088Y719138D01*
X700088Y733425D01*
X684212Y749300D01*
X684212Y765175D01*
G54D11*
X723900Y330200D02*
X723900Y684212D01*
G54D11*
X749300Y695325D02*
X749300Y690562D01*
X739775Y681038D01*
X739775Y442912D01*
X747712Y434975D01*
X747712Y306787D01*
X762000Y292500D01*
X762000Y290512D01*
X746125Y274638D01*
X746125Y200025D01*
X785812Y160338D01*
X785812Y57150D01*
X787400Y55562D01*
G54D11*
X789900Y798700D02*
X789175Y798700D01*
X776288Y785812D01*
X776288Y706438D01*
X747712Y677862D01*
X747712Y449262D01*
X760412Y436562D01*
G54D11*
X593725Y333375D02*
X593725Y404812D01*
X596900Y407988D01*
G54D11*
X788988Y703262D02*
X785812Y417512D01*
X774700Y403225D01*
X774700Y381400D01*
X762000Y368700D01*
X762000Y366713D01*
X773112Y355600D01*
X773112Y188912D01*
X809625Y152400D01*
X809625Y73025D01*
X808038Y71438D01*
G54D11*
X796925Y608012D02*
X796925Y546100D01*
G54D11*
X887412Y595312D02*
X887412Y573588D01*
X890850Y570150D01*
X890850Y474925D01*
X887412Y471488D01*
G54D11*
X916250Y570150D02*
X916250Y481275D01*
X915988Y481012D01*
G54D11*
X941650Y570150D02*
X941650Y509850D01*
X939800Y508000D01*
G54D11*
X869950Y658812D02*
X869950Y650875D01*
X865188Y646112D01*
X865188Y593725D01*
X876300Y582612D01*
X873125Y404812D01*
X833438Y361950D01*
X833438Y323438D01*
X830000Y320000D01*
G54D11*
X902900Y1022400D02*
X902900Y903675D01*
X915988Y890588D01*
X915988Y812800D01*
X903288Y800100D01*
G54D11*
X979488Y795338D02*
X979488Y820412D01*
X978700Y821200D01*
G54D11*
X1029900Y1022400D02*
X1029900Y949712D01*
X1031875Y947738D01*
G54D11*
X1298300Y1018700D02*
X1298300Y1036362D01*
X1303338Y1041400D01*
X1327150Y1041400D01*
X1335088Y1033462D01*
X1335088Y995362D01*
X1347788Y982662D01*
X1347788Y943812D01*
X1349100Y942500D01*
G54D11*
X1298300Y942500D02*
X1298300Y955400D01*
X1322388Y979488D01*
X1322388Y1017388D01*
X1323700Y1018700D01*
G54D11*
X1257300Y1047750D02*
X1257300Y1035050D01*
X1260475Y1031875D01*
X1260475Y862012D01*
X1284288Y838200D01*
X1284288Y788988D01*
X1308100Y765175D01*
X1308100Y728662D01*
X1320800Y715962D01*
X1320800Y695700D01*
X1322800Y693700D01*
G54D11*
X1349100Y942500D02*
X1349100Y820800D01*
X1347000Y818700D01*
G54D11*
X1372400Y818700D02*
X1372400Y892975D01*
X1385888Y906462D01*
X1385888Y974725D01*
X1384300Y976312D01*
G54D11*
X1357312Y1049338D02*
X1357312Y1036638D01*
X1360488Y1033462D01*
X1360488Y719138D01*
X1349375Y708025D01*
X1349375Y694875D01*
X1348200Y693700D01*
G54D11*
X1222375Y976312D02*
X1222375Y919162D01*
X1244600Y896938D01*
X1244600Y846138D01*
X1257300Y833438D01*
X1257300Y795338D01*
X1282700Y769938D01*
X1282700Y704400D01*
X1272000Y693700D01*
G54D11*
X1411288Y990600D02*
X1411288Y906462D01*
X1384300Y879475D01*
X1384300Y704400D01*
X1373600Y693700D01*
G54D11*
X1336675Y652462D02*
X1336675Y732175D01*
X1347000Y742500D01*
G54D11*
X1296200Y818700D02*
X1296200Y794538D01*
X1322388Y768350D01*
X1322388Y743288D01*
X1321600Y742500D01*
G54D11*
X1222375Y893762D02*
X1222375Y892175D01*
X1231900Y882650D01*
X1231900Y708400D01*
X1246600Y693700D01*
G54D11*
X1195388Y898525D02*
X1195388Y855662D01*
X1201738Y849312D01*
X1201738Y713162D01*
X1221200Y693700D01*
G54D11*
X1170400Y693700D02*
X1170400Y750475D01*
X1168400Y752475D01*
G54D11*
X1080700Y1022400D02*
X1080700Y945762D01*
X1068388Y933450D01*
X1068388Y804862D01*
X1054100Y790575D01*
X1054100Y745800D01*
X1054900Y745000D01*
G54D11*
X1068388Y711200D02*
X1068388Y781050D01*
X1093788Y806450D01*
X1093788Y923925D01*
X1095375Y925512D01*
G54D11*
X1029500Y745000D02*
X1029500Y783425D01*
X1017588Y795338D01*
X1017588Y846138D01*
X1011238Y852488D01*
G54D11*
X838200Y947738D02*
X838200Y836612D01*
X839788Y835025D01*
G54D11*
X890588Y947738D02*
X890588Y608012D01*
X901700Y596900D01*
X901700Y452438D01*
X889000Y439738D01*
X889000Y419600D01*
X890850Y417750D01*
G54D11*
X952500Y546100D02*
X952500Y618400D01*
X954100Y620000D01*
G54D11*
X977900Y517525D02*
X977900Y618400D01*
X979500Y620000D01*
G54D11*
X1016000Y504825D02*
X1016000Y568300D01*
X1017850Y570150D01*
G54D11*
X1041400Y493712D02*
X1041400Y568300D01*
X1043250Y570150D01*
G54D11*
X1068650Y570150D02*
X1068650Y541075D01*
X1077912Y531812D01*
G54D11*
X927900Y745000D02*
X927900Y731038D01*
X941388Y717550D01*
X941388Y596900D01*
X938212Y593725D01*
G54D11*
X953300Y745000D02*
X953300Y735800D01*
X966788Y722312D01*
X965200Y631825D01*
X954100Y620000D01*
G54D11*
X978700Y745000D02*
X978700Y734212D01*
X993775Y719138D01*
X993775Y593725D01*
X1003300Y584200D01*
X1003300Y469900D01*
X977900Y444500D01*
G54D11*
X1004100Y745000D02*
X1004100Y729450D01*
X1017588Y715962D01*
X1017588Y650875D01*
X1014412Y647700D01*
G54D11*
X903288Y800100D02*
X903288Y793750D01*
X915988Y781050D01*
X915988Y603250D01*
X928688Y590550D01*
X928688Y460375D01*
X914400Y446088D01*
X914400Y419600D01*
X916250Y417750D01*
G54D11*
X1042988Y831850D02*
X1042988Y684212D01*
X1028700Y669925D01*
X1028700Y642938D01*
X1017588Y631825D01*
X1017588Y604838D01*
X1030288Y592138D01*
X1030288Y503238D01*
X1011238Y484188D01*
X1011238Y441325D01*
X1004888Y434975D01*
X1004888Y407988D01*
X1001712Y404812D01*
X1001712Y342900D01*
X1003300Y341312D01*
G54D11*
X1081100Y696200D02*
X1081100Y695338D01*
X1042988Y657225D01*
X1042988Y598488D01*
X1055688Y585788D01*
X1055688Y557212D01*
X1063625Y549275D01*
X1063625Y422775D01*
X1068650Y417750D01*
G54D11*
X1096962Y774700D02*
X1096962Y766762D01*
X1093788Y763588D01*
X1093788Y684212D01*
X1066800Y657225D01*
X1066800Y606425D01*
X1079500Y593725D01*
X1079500Y546100D01*
X1092200Y533400D01*
X1092200Y419600D01*
X1094050Y417750D01*
G54D11*
X1131888Y742950D02*
X1131888Y558800D01*
X1116012Y542925D01*
X1116012Y421188D01*
X1119450Y417750D01*
G54D11*
X1144850Y570150D02*
X1144850Y591950D01*
X1170400Y617500D01*
G54D11*
X1145000Y617500D02*
X1145000Y633825D01*
X1155700Y644525D01*
G54D11*
X1195800Y617500D02*
X1195800Y605250D01*
X1169988Y579438D01*
X1169988Y570412D01*
X1170250Y570150D01*
G54D11*
X1221200Y617500D02*
X1221200Y606838D01*
X1195388Y581025D01*
X1195388Y570412D01*
X1195650Y570150D01*
G54D11*
X1272000Y617500D02*
X1272000Y605250D01*
X1246188Y579438D01*
X1246188Y570412D01*
X1246450Y570150D01*
G54D11*
X1221050Y570150D02*
X1221050Y591950D01*
X1246600Y617500D01*
G54D11*
X1245400Y818700D02*
X1245400Y777075D01*
X1257300Y765175D01*
X1257300Y606425D01*
X1231900Y581025D01*
X1231900Y530225D01*
X1244600Y517525D01*
X1244600Y479425D01*
G54D11*
X1270000Y466725D02*
X1270000Y568300D01*
X1271850Y570150D01*
G54D11*
X1272000Y617500D02*
X1272000Y653638D01*
X1271588Y654050D01*
G54D11*
X1297400Y617500D02*
X1297400Y663162D01*
X1296988Y663575D01*
G54D11*
X1296200Y742500D02*
X1296200Y719925D01*
X1308100Y708025D01*
X1308100Y603250D01*
X1333500Y577850D01*
X1333500Y538162D01*
X1336675Y534988D01*
X1322388Y674688D02*
G54D12*
D03*
G54D11*
X1322800Y617500D02*
X1322800Y674275D01*
X1322388Y674688D01*
G54D11*
X1348200Y617500D02*
X1348200Y625888D01*
X1362075Y639762D01*
X1362075Y679450D01*
X1360488Y681038D01*
G54D11*
X1297400Y617500D02*
X1297400Y595400D01*
X1322650Y570150D01*
G54D11*
X1322800Y617500D02*
X1322800Y617125D01*
X1349375Y590550D01*
X1349375Y571475D01*
X1348050Y570150D01*
G54D11*
X1348200Y617500D02*
X1348200Y612362D01*
X1371600Y588962D01*
X1371600Y572000D01*
X1373450Y570150D01*
G54D11*
X1082675Y644525D02*
X1082675Y652462D01*
X1103312Y673100D01*
X1103312Y758825D01*
X1112838Y768350D01*
X1112838Y828675D01*
X1130300Y846138D01*
X1130300Y868800D01*
X1131500Y870000D01*
G54D11*
X1144588Y920750D02*
X1144588Y835025D01*
X1157288Y819150D01*
X1155700Y644525D01*
G54D11*
X1171575Y985838D02*
X1169988Y860425D01*
X1192212Y847725D01*
X1190625Y698875D01*
X1195800Y693700D01*
G54D11*
X1181100Y842962D02*
X1181100Y604838D01*
X1157288Y581025D01*
X1157288Y530225D01*
X1166812Y520700D01*
X1166812Y436562D01*
G54D11*
X852500Y620000D02*
X852500Y658825D01*
X865188Y671512D01*
X865188Y708025D01*
X877888Y720725D01*
X877888Y774700D01*
X876300Y776288D01*
G54D11*
X806450Y736600D02*
X806450Y514350D01*
X800100Y508000D01*
X800100Y404812D01*
X788988Y393700D01*
X788988Y249238D01*
X790575Y247650D01*
G54D11*
X798512Y527050D02*
X798512Y517525D01*
X793750Y512762D01*
X793750Y414338D01*
X781050Y396875D01*
X779462Y193675D01*
X781050Y193675D01*
X820738Y153988D01*
X820738Y96838D01*
X822325Y95250D01*
G54D11*
X815975Y860425D02*
X815975Y501650D01*
X812800Y498475D01*
X812800Y493712D01*
X808038Y488950D01*
X808038Y403225D01*
X795338Y390525D01*
X795338Y257175D01*
X801688Y250825D01*
X801688Y242888D01*
X800100Y241300D01*
X800100Y239712D01*
X788988Y228600D01*
X788988Y196850D01*
X830262Y155575D01*
X830262Y103188D01*
X835025Y98425D01*
X835025Y61912D01*
X833438Y60325D01*
G54D11*
X827088Y831850D02*
X827088Y822325D01*
X822325Y817562D01*
X822325Y508000D01*
X825500Y504825D01*
X825500Y487362D01*
X817562Y479425D01*
X817562Y450850D01*
X817562Y401638D01*
X803275Y387350D01*
X801688Y261938D01*
X814388Y242888D01*
X814388Y193675D01*
X846138Y161925D01*
X846138Y114300D01*
X860425Y100012D01*
X860425Y65088D01*
G54D11*
X803275Y222250D02*
X803275Y193675D01*
X838200Y158750D01*
X838200Y104775D01*
X850900Y92075D01*
G54D11*
X819150Y257175D02*
X809625Y266700D01*
X809625Y385762D01*
X828675Y404812D01*
X828675Y471488D01*
X833438Y476250D01*
X833438Y588962D01*
X827088Y593725D01*
X827088Y763588D01*
X836612Y771525D01*
G54D11*
X836612Y744538D02*
X836612Y728662D01*
X833438Y725488D01*
X833438Y596900D01*
X846138Y584200D01*
X846138Y466725D01*
X836612Y457200D01*
X836612Y400050D01*
X820738Y384175D01*
X820738Y350838D01*
X822325Y349250D01*
X822325Y342900D01*
X815975Y336550D01*
X815975Y290512D01*
X833438Y273050D01*
X833438Y220662D01*
X846138Y207962D01*
X846138Y176212D01*
X860425Y161925D01*
X860425Y142875D01*
G54D11*
X847725Y355600D02*
X847725Y241300D01*
X876300Y212725D01*
X876300Y184150D01*
X873125Y180975D01*
X873125Y133350D01*
G54D11*
X852488Y744538D02*
X852488Y728662D01*
X839788Y715962D01*
X839788Y606425D01*
X863600Y582612D01*
X863600Y479425D01*
G54D13*
X887500Y366200D02*
X887500Y395000D01*
G54D11*
X903288Y307975D02*
X903288Y356588D01*
X912900Y366200D01*
G54D11*
X952500Y469900D02*
X952500Y301200D01*
X963700Y290000D01*
G54D11*
X1027112Y482600D02*
X1030288Y407788D01*
X1039900Y395000D01*
G54D11*
X1052512Y542925D02*
X1055688Y463550D01*
X1052512Y380400D01*
X1039900Y366200D01*
G54D11*
X1014500Y395000D02*
X1014500Y390438D01*
X1027112Y377825D01*
X1027112Y212725D01*
G54D11*
X1077912Y531812D02*
X1081088Y525462D01*
X1081088Y390525D01*
X1066800Y376238D01*
X1066800Y367700D01*
X1065300Y366200D01*
X1065300Y341400D01*
X1065212Y341312D01*
G54D11*
X990600Y482600D02*
X992450Y570150D01*
G54D11*
X1104900Y492125D02*
X1104900Y380400D01*
X1090700Y366200D01*
G54D11*
X1116100Y366200D02*
X1116100Y381088D01*
X1131888Y396875D01*
X1128712Y493712D01*
G54D11*
X1144850Y570150D02*
X1144850Y526788D01*
X1155700Y515938D01*
X1155700Y403225D01*
X1131888Y379412D01*
G54D11*
X1170250Y570150D02*
X1170250Y529962D01*
X1179512Y520700D01*
X1182688Y403225D01*
X1149350Y369888D01*
X1149350Y300038D01*
X1141412Y292100D01*
G54D11*
X1208088Y642938D02*
X1208088Y603250D01*
X1182688Y577850D01*
X1182688Y528638D01*
X1193800Y517525D01*
X1193800Y469900D01*
X1192212Y468312D01*
G54D11*
X1195650Y570150D02*
X1195650Y529962D01*
X1206500Y519112D01*
X1206500Y406400D01*
X1157288Y357188D01*
X1157288Y284162D01*
X1154112Y280988D01*
G54D11*
X1221050Y570150D02*
X1221050Y437888D01*
X1231900Y427038D01*
X1231900Y334962D01*
X1241425Y325438D01*
X1241425Y291875D01*
X1243300Y290000D01*
G54D11*
X1246450Y417750D02*
X1246450Y387088D01*
X1255712Y377825D01*
X1255712Y344488D01*
X1293812Y306388D01*
X1293812Y290288D01*
X1294100Y290000D01*
G54D11*
X1281112Y439738D02*
X1281112Y428625D01*
X1282700Y427038D01*
X1282700Y390525D01*
X1292225Y381000D01*
X1292225Y368075D01*
X1294100Y366200D01*
G54D11*
X1306512Y515938D02*
X1306512Y430212D01*
X1309688Y427038D01*
X1309688Y388938D01*
X1317625Y381000D01*
X1317625Y368075D01*
X1319500Y366200D01*
G54D11*
X1323975Y496888D02*
X1323975Y471488D01*
X1333500Y461962D01*
X1333500Y390525D01*
X1344612Y379412D01*
X1344612Y366488D01*
X1344900Y366200D01*
G54D11*
X1348050Y417750D02*
X1348050Y387088D01*
X1357312Y377825D01*
X1357312Y352425D01*
X1371600Y338138D01*
X1371600Y323850D01*
X1373188Y322262D01*
G54D11*
X1304925Y327025D02*
X1304925Y323850D01*
X1319212Y309562D01*
X1319212Y290288D01*
X1319500Y290000D01*
G54D11*
X1319212Y341312D02*
X1319212Y338138D01*
X1344612Y312738D01*
X1344612Y290288D01*
X1344900Y290000D01*
G54D11*
X1090612Y398462D02*
X1090612Y388938D01*
X1077912Y376238D01*
X1077912Y336550D01*
X1052512Y311150D01*
X1052512Y284162D01*
X1062038Y274638D01*
X1062038Y238125D01*
G54D11*
X1231900Y176212D02*
X1230312Y182562D01*
X1230312Y314325D01*
X1203325Y341312D01*
X1203325Y377825D01*
X1217612Y392112D01*
X1217612Y414312D01*
X1221050Y417750D01*
G54D11*
X1268700Y290000D02*
X1268700Y289212D01*
X1257300Y277812D01*
X1230312Y277812D01*
G54D11*
X1281112Y231775D02*
X1281112Y277012D01*
X1294100Y290000D01*
G54D11*
X1242900Y187500D02*
X1242900Y214200D01*
X1268412Y239712D01*
G54D11*
X1268300Y187500D02*
X1268300Y204675D01*
X1292225Y228600D01*
X1292225Y262225D01*
X1293700Y263700D01*
G54D11*
X1293700Y187500D02*
X1293700Y201500D01*
X1317625Y225425D01*
X1317625Y262225D01*
X1319100Y263700D01*
G54D11*
X1360488Y392112D02*
X1376362Y392112D01*
X1393825Y374650D01*
X1393825Y265112D01*
X1376362Y247650D01*
X1360488Y247650D01*
X1355725Y242888D01*
X1355725Y109538D01*
X1341438Y95250D01*
X1176338Y95250D01*
X1168400Y87312D01*
G54D11*
X1370012Y234950D02*
X1379538Y234950D01*
X1400175Y255588D01*
X1400175Y439738D01*
X1308100Y539750D01*
X1308100Y576262D01*
X1289050Y595312D01*
X1281938Y595312D01*
X1272000Y605250D01*
G54D11*
X1322650Y570150D02*
X1322650Y533138D01*
X1406525Y449262D01*
X1406525Y249238D01*
X1379538Y222250D01*
X1373188Y222250D01*
X1370012Y219075D01*
G54D11*
X1348050Y570150D02*
X1348050Y523612D01*
X1417638Y454025D01*
X1417638Y233362D01*
X1392238Y207962D01*
X1371600Y207962D01*
X1370012Y206375D01*
G54D11*
X1373450Y570150D02*
X1373450Y523612D01*
X1428750Y468312D01*
X1428750Y207962D01*
X1385888Y165100D01*
X1385888Y107950D01*
X1363662Y85725D01*
X1182688Y85725D01*
X1174750Y77788D01*
X1173162Y77788D01*
X1166812Y71438D01*
G54D11*
X1271850Y417750D02*
X1271850Y382325D01*
X1281112Y373062D01*
X1281112Y331788D01*
X1304925Y307975D01*
X1304925Y230188D01*
X1281112Y206375D01*
X1281112Y180975D01*
X1271588Y173038D01*
X1241425Y171450D01*
X1216025Y161925D01*
X1177925Y128588D01*
G54D11*
X1297250Y417750D02*
X1297250Y387088D01*
X1306512Y377825D01*
X1306512Y338138D01*
X1330325Y314325D01*
X1330325Y223838D01*
X1306512Y200025D01*
X1306512Y176212D01*
X1296988Y166688D01*
X1244600Y163512D01*
X1216025Y149225D01*
X1181100Y114300D01*
X1174750Y114300D01*
G54D11*
X1322650Y417750D02*
X1322650Y387088D01*
X1330325Y379412D01*
X1330325Y341312D01*
X1355725Y315912D01*
X1355725Y257175D01*
X1339850Y241300D01*
X1339850Y212725D01*
X1330325Y203200D01*
X1330325Y174625D01*
X1314450Y158750D01*
X1247775Y157162D01*
X1190625Y103188D01*
X1165225Y103188D01*
G54D11*
X1170250Y417750D02*
X1170250Y403488D01*
X1141412Y374650D01*
X1141412Y314325D01*
X1130300Y303212D01*
X1130300Y190500D01*
X1084262Y144462D01*
X1077912Y144462D01*
X1076325Y142875D01*
G54D11*
X1090700Y290000D02*
X1090700Y169950D01*
X1089025Y168275D01*
G54D11*
X1131888Y379412D02*
X1131888Y355600D01*
X1079500Y303212D01*
X1079500Y269875D01*
X1084262Y265112D01*
X1084262Y182562D01*
X1077912Y176212D01*
X1077912Y160338D01*
X1062038Y144462D01*
X1033462Y144462D01*
X992188Y103188D01*
X992188Y92075D01*
X987425Y87312D01*
X987425Y66675D01*
G54D11*
X1139825Y68262D02*
X1139825Y125412D01*
X1190625Y176212D01*
X1190625Y196850D01*
G54D11*
X1114425Y69850D02*
X1114425Y115888D01*
X1179512Y180975D01*
X1179512Y206375D01*
G54D11*
X1089025Y58738D02*
X1089025Y104775D01*
X1165225Y180975D01*
X1165225Y215900D01*
X1168400Y219075D01*
G54D11*
X1065212Y68262D02*
X1065212Y96838D01*
X1157288Y188912D01*
X1157288Y265112D01*
X1160462Y268288D01*
G54D11*
X1038225Y55562D02*
X1038225Y111125D01*
X1049338Y122238D01*
X1079500Y122238D01*
X1146175Y188912D01*
X1146175Y273050D01*
X1154112Y280988D01*
G54D11*
X1012825Y71438D02*
X1012825Y106362D01*
X1036638Y130175D01*
X1079500Y130175D01*
X1139825Y190500D01*
X1139825Y290512D01*
X1141412Y292100D01*
G54D11*
X1066800Y168275D02*
X1066800Y212725D01*
X1074738Y220662D01*
X1074738Y268288D01*
X1068388Y274638D01*
X1068388Y286912D01*
X1065300Y290000D01*
G54D11*
X1039900Y290000D02*
X1039900Y285662D01*
X1052512Y273050D01*
X1052512Y182562D01*
X1057275Y177800D01*
G54D11*
X962025Y71438D02*
X979488Y88900D01*
X979488Y101600D01*
X1027112Y149225D01*
X1027112Y196850D01*
X1014412Y209550D01*
X1014412Y263612D01*
X1014500Y263700D01*
G54D11*
X1000125Y214312D02*
X1000125Y219075D01*
X1003300Y222250D01*
X1003300Y278800D01*
X1014500Y290000D01*
G54D11*
X990600Y234950D02*
X990600Y207962D01*
X1001712Y196850D01*
X1001712Y158750D01*
X987425Y144462D01*
X987425Y119062D01*
X973138Y104775D01*
X973138Y95250D01*
X936625Y74612D01*
G54D11*
X946150Y95250D02*
X946150Y115888D01*
X977900Y147638D01*
X974725Y242888D01*
G54D11*
X974725Y242888D02*
X974725Y275625D01*
X989100Y290000D01*
G54D11*
X1039812Y228600D02*
X1039812Y263612D01*
X1039900Y263700D01*
G54D11*
X873125Y92075D02*
X873125Y117475D01*
X900112Y144462D01*
X900112Y277212D01*
X912900Y290000D01*
G54D11*
X898525Y92075D02*
X898525Y120650D01*
X925512Y147638D01*
X925512Y277212D01*
X938300Y290000D01*
G54D11*
X938300Y187500D02*
X938300Y263700D01*
G54D11*
X923925Y92075D02*
X923925Y115888D01*
X950912Y142875D01*
X950912Y203200D01*
X950912Y277212D01*
X963700Y290000D01*
G54D11*
X887500Y290000D02*
X887500Y341225D01*
X884238Y344488D01*
G54D11*
X887500Y263700D02*
X887500Y265025D01*
X874712Y277812D01*
X874712Y351825D01*
X887500Y366200D01*
X874712Y353412D01*
G54D11*
X485775Y762000D02*
X485775Y768350D01*
X482600Y771525D01*
X482600Y795338D01*
X487362Y800100D01*
X485775Y852488D01*
X495300Y862012D01*
G36*
X35500Y959138D02*
X49500Y959138D01*
X49500Y945138D01*
X35500Y945138D01*
X35500Y959138D01*
G37*
X67900Y952138D02*
G54D15*
D03*
X93300Y952138D02*
G54D15*
D03*
X118700Y952138D02*
G54D15*
D03*
X144100Y952138D02*
G54D15*
D03*
X169500Y952138D02*
G54D15*
D03*
X194900Y952138D02*
G54D15*
D03*
X220300Y952138D02*
G54D15*
D03*
X220300Y1028338D02*
G54D15*
D03*
X194900Y1028338D02*
G54D15*
D03*
X169500Y1028338D02*
G54D15*
D03*
X144100Y1028338D02*
G54D15*
D03*
X118700Y1028338D02*
G54D15*
D03*
X93300Y1028338D02*
G54D15*
D03*
X67900Y1028338D02*
G54D15*
D03*
X42500Y1028338D02*
G54D15*
D03*
G36*
X33000Y847000D02*
X47000Y847000D01*
X47000Y833000D01*
X33000Y833000D01*
X33000Y847000D01*
G37*
X65400Y840000D02*
G54D15*
D03*
X90800Y840000D02*
G54D15*
D03*
X116200Y840000D02*
G54D15*
D03*
X141600Y840000D02*
G54D15*
D03*
X167000Y840000D02*
G54D15*
D03*
X192400Y840000D02*
G54D15*
D03*
X217800Y840000D02*
G54D15*
D03*
X217800Y916200D02*
G54D15*
D03*
X192400Y916200D02*
G54D15*
D03*
X167000Y916200D02*
G54D15*
D03*
X141600Y916200D02*
G54D15*
D03*
X116200Y916200D02*
G54D15*
D03*
X90800Y916200D02*
G54D15*
D03*
X65400Y916200D02*
G54D15*
D03*
X40000Y916200D02*
G54D15*
D03*
G36*
X33000Y732000D02*
X47000Y732000D01*
X47000Y718000D01*
X33000Y718000D01*
X33000Y732000D01*
G37*
X65400Y725000D02*
G54D15*
D03*
X90800Y725000D02*
G54D15*
D03*
X116200Y725000D02*
G54D15*
D03*
X141600Y725000D02*
G54D15*
D03*
X167000Y725000D02*
G54D15*
D03*
X192400Y725000D02*
G54D15*
D03*
X217800Y725000D02*
G54D15*
D03*
X217800Y801200D02*
G54D15*
D03*
X192400Y801200D02*
G54D15*
D03*
X167000Y801200D02*
G54D15*
D03*
X141600Y801200D02*
G54D15*
D03*
X116200Y801200D02*
G54D15*
D03*
X90800Y801200D02*
G54D15*
D03*
X65400Y801200D02*
G54D15*
D03*
X40000Y801200D02*
G54D15*
D03*
G36*
X33000Y619500D02*
X47000Y619500D01*
X47000Y605500D01*
X33000Y605500D01*
X33000Y619500D01*
G37*
X65400Y612500D02*
G54D15*
D03*
X90800Y612500D02*
G54D15*
D03*
X116200Y612500D02*
G54D15*
D03*
X141600Y612500D02*
G54D15*
D03*
X167000Y612500D02*
G54D15*
D03*
X192400Y612500D02*
G54D15*
D03*
X217800Y612500D02*
G54D15*
D03*
X217800Y688700D02*
G54D15*
D03*
X192400Y688700D02*
G54D15*
D03*
X167000Y688700D02*
G54D15*
D03*
X141600Y688700D02*
G54D15*
D03*
X116200Y688700D02*
G54D15*
D03*
X90800Y688700D02*
G54D15*
D03*
X65400Y688700D02*
G54D15*
D03*
X40000Y688700D02*
G54D15*
D03*
G36*
X32025Y505475D02*
X46025Y505475D01*
X46025Y491475D01*
X32025Y491475D01*
X32025Y505475D01*
G37*
X64425Y498475D02*
G54D15*
D03*
X89825Y498475D02*
G54D15*
D03*
X115225Y498475D02*
G54D15*
D03*
X140625Y498475D02*
G54D15*
D03*
X166025Y498475D02*
G54D15*
D03*
X191425Y498475D02*
G54D15*
D03*
X216825Y498475D02*
G54D15*
D03*
X216825Y574675D02*
G54D15*
D03*
X191425Y574675D02*
G54D15*
D03*
X166025Y574675D02*
G54D15*
D03*
X140625Y574675D02*
G54D15*
D03*
X115225Y574675D02*
G54D15*
D03*
X89825Y574675D02*
G54D15*
D03*
X64425Y574675D02*
G54D15*
D03*
X39025Y574675D02*
G54D15*
D03*
G36*
X29525Y393338D02*
X43525Y393338D01*
X43525Y379338D01*
X29525Y379338D01*
X29525Y393338D01*
G37*
X61925Y386338D02*
G54D15*
D03*
X87325Y386338D02*
G54D15*
D03*
X112725Y386338D02*
G54D15*
D03*
X138125Y386338D02*
G54D15*
D03*
X163525Y386338D02*
G54D15*
D03*
X188925Y386338D02*
G54D15*
D03*
X214325Y386338D02*
G54D15*
D03*
X214325Y462538D02*
G54D15*
D03*
X188925Y462538D02*
G54D15*
D03*
X163525Y462538D02*
G54D15*
D03*
X138125Y462538D02*
G54D15*
D03*
X112725Y462538D02*
G54D15*
D03*
X87325Y462538D02*
G54D15*
D03*
X61925Y462538D02*
G54D15*
D03*
X36525Y462538D02*
G54D15*
D03*
G36*
X29525Y278338D02*
X43525Y278338D01*
X43525Y264338D01*
X29525Y264338D01*
X29525Y278338D01*
G37*
X61925Y271338D02*
G54D15*
D03*
X87325Y271338D02*
G54D15*
D03*
X112725Y271338D02*
G54D15*
D03*
X138125Y271338D02*
G54D15*
D03*
X163525Y271338D02*
G54D15*
D03*
X188925Y271338D02*
G54D15*
D03*
X214325Y271338D02*
G54D15*
D03*
X214325Y347538D02*
G54D15*
D03*
X188925Y347538D02*
G54D15*
D03*
X163525Y347538D02*
G54D15*
D03*
X138125Y347538D02*
G54D15*
D03*
X112725Y347538D02*
G54D15*
D03*
X87325Y347538D02*
G54D15*
D03*
X61925Y347538D02*
G54D15*
D03*
X36525Y347538D02*
G54D15*
D03*
G36*
X29525Y165838D02*
X43525Y165838D01*
X43525Y151838D01*
X29525Y151838D01*
X29525Y165838D01*
G37*
X61925Y158838D02*
G54D15*
D03*
X87325Y158838D02*
G54D15*
D03*
X112725Y158838D02*
G54D15*
D03*
X138125Y158838D02*
G54D15*
D03*
X163525Y158838D02*
G54D15*
D03*
X188925Y158838D02*
G54D15*
D03*
X214325Y158838D02*
G54D15*
D03*
X214325Y235038D02*
G54D15*
D03*
X188925Y235038D02*
G54D15*
D03*
X163525Y235038D02*
G54D15*
D03*
X138125Y235038D02*
G54D15*
D03*
X112725Y235038D02*
G54D15*
D03*
X87325Y235038D02*
G54D15*
D03*
X61925Y235038D02*
G54D15*
D03*
X36525Y235038D02*
G54D15*
D03*
G36*
X287912Y959138D02*
X301912Y959138D01*
X301912Y945138D01*
X287912Y945138D01*
X287912Y959138D01*
G37*
X320312Y952138D02*
G54D15*
D03*
X345712Y952138D02*
G54D15*
D03*
X371112Y952138D02*
G54D15*
D03*
X396512Y952138D02*
G54D15*
D03*
X421912Y952138D02*
G54D15*
D03*
X447312Y952138D02*
G54D15*
D03*
X472712Y952138D02*
G54D15*
D03*
X472712Y1028338D02*
G54D15*
D03*
X447312Y1028338D02*
G54D15*
D03*
X421912Y1028338D02*
G54D15*
D03*
X396512Y1028338D02*
G54D15*
D03*
X371112Y1028338D02*
G54D15*
D03*
X345712Y1028338D02*
G54D15*
D03*
X320312Y1028338D02*
G54D15*
D03*
X294912Y1028338D02*
G54D15*
D03*
G36*
X287912Y844838D02*
X301912Y844838D01*
X301912Y830838D01*
X287912Y830838D01*
X287912Y844838D01*
G37*
X320312Y837838D02*
G54D15*
D03*
X345712Y837838D02*
G54D15*
D03*
X371112Y837838D02*
G54D15*
D03*
X396512Y837838D02*
G54D15*
D03*
X421912Y837838D02*
G54D15*
D03*
X447312Y837838D02*
G54D15*
D03*
X472712Y837838D02*
G54D15*
D03*
X472712Y914038D02*
G54D15*
D03*
X447312Y914038D02*
G54D15*
D03*
X421912Y914038D02*
G54D15*
D03*
X396512Y914038D02*
G54D15*
D03*
X371112Y914038D02*
G54D15*
D03*
X345712Y914038D02*
G54D15*
D03*
X320312Y914038D02*
G54D15*
D03*
X294912Y914038D02*
G54D15*
D03*
G36*
X287912Y732125D02*
X301912Y732125D01*
X301912Y718125D01*
X287912Y718125D01*
X287912Y732125D01*
G37*
X320312Y725125D02*
G54D15*
D03*
X345712Y725125D02*
G54D15*
D03*
X371112Y725125D02*
G54D15*
D03*
X396512Y725125D02*
G54D15*
D03*
X421912Y725125D02*
G54D15*
D03*
X447312Y725125D02*
G54D15*
D03*
X472712Y725125D02*
G54D15*
D03*
X472712Y801325D02*
G54D15*
D03*
X447312Y801325D02*
G54D15*
D03*
X421912Y801325D02*
G54D15*
D03*
X396512Y801325D02*
G54D15*
D03*
X371112Y801325D02*
G54D15*
D03*
X345712Y801325D02*
G54D15*
D03*
X320312Y801325D02*
G54D15*
D03*
X294912Y801325D02*
G54D15*
D03*
G36*
X287000Y617912D02*
X301000Y617912D01*
X301000Y603912D01*
X287000Y603912D01*
X287000Y617912D01*
G37*
X319400Y610912D02*
G54D15*
D03*
X344800Y610912D02*
G54D15*
D03*
X370200Y610912D02*
G54D15*
D03*
X395600Y610912D02*
G54D15*
D03*
X421000Y610912D02*
G54D15*
D03*
X446400Y610912D02*
G54D15*
D03*
X471800Y610912D02*
G54D15*
D03*
X471800Y687112D02*
G54D15*
D03*
X446400Y687112D02*
G54D15*
D03*
X421000Y687112D02*
G54D15*
D03*
X395600Y687112D02*
G54D15*
D03*
X370200Y687112D02*
G54D15*
D03*
X344800Y687112D02*
G54D15*
D03*
X319400Y687112D02*
G54D15*
D03*
X294000Y687112D02*
G54D15*
D03*
G36*
X285412Y506787D02*
X299412Y506787D01*
X299412Y492787D01*
X285412Y492787D01*
X285412Y506787D01*
G37*
X317812Y499787D02*
G54D15*
D03*
X343212Y499787D02*
G54D15*
D03*
X368612Y499787D02*
G54D15*
D03*
X394012Y499787D02*
G54D15*
D03*
X419412Y499787D02*
G54D15*
D03*
X444812Y499787D02*
G54D15*
D03*
X470212Y499787D02*
G54D15*
D03*
X470212Y575988D02*
G54D15*
D03*
X444812Y575988D02*
G54D15*
D03*
X419412Y575988D02*
G54D15*
D03*
X394012Y575988D02*
G54D15*
D03*
X368612Y575988D02*
G54D15*
D03*
X343212Y575988D02*
G54D15*
D03*
X317812Y575988D02*
G54D15*
D03*
X292412Y575988D02*
G54D15*
D03*
G36*
X285412Y392488D02*
X299412Y392488D01*
X299412Y378488D01*
X285412Y378488D01*
X285412Y392488D01*
G37*
X317812Y385488D02*
G54D15*
D03*
X343212Y385488D02*
G54D15*
D03*
X368612Y385488D02*
G54D15*
D03*
X394012Y385488D02*
G54D15*
D03*
X419412Y385488D02*
G54D15*
D03*
X444812Y385488D02*
G54D15*
D03*
X470212Y385488D02*
G54D15*
D03*
X470212Y461688D02*
G54D15*
D03*
X444812Y461688D02*
G54D15*
D03*
X419412Y461688D02*
G54D15*
D03*
X394012Y461688D02*
G54D15*
D03*
X368612Y461688D02*
G54D15*
D03*
X343212Y461688D02*
G54D15*
D03*
X317812Y461688D02*
G54D15*
D03*
X292412Y461688D02*
G54D15*
D03*
G36*
X285412Y278188D02*
X299412Y278188D01*
X299412Y264188D01*
X285412Y264188D01*
X285412Y278188D01*
G37*
X317812Y271188D02*
G54D15*
D03*
X343212Y271188D02*
G54D15*
D03*
X368612Y271188D02*
G54D15*
D03*
X394012Y271188D02*
G54D15*
D03*
X419412Y271188D02*
G54D15*
D03*
X444812Y271188D02*
G54D15*
D03*
X470212Y271188D02*
G54D15*
D03*
X470212Y347388D02*
G54D15*
D03*
X444812Y347388D02*
G54D15*
D03*
X419412Y347388D02*
G54D15*
D03*
X394012Y347388D02*
G54D15*
D03*
X368612Y347388D02*
G54D15*
D03*
X343212Y347388D02*
G54D15*
D03*
X317812Y347388D02*
G54D15*
D03*
X292412Y347388D02*
G54D15*
D03*
G36*
X283825Y165475D02*
X297825Y165475D01*
X297825Y151475D01*
X283825Y151475D01*
X283825Y165475D01*
G37*
X316225Y158475D02*
G54D15*
D03*
X341625Y158475D02*
G54D15*
D03*
X367025Y158475D02*
G54D15*
D03*
X392425Y158475D02*
G54D15*
D03*
X417825Y158475D02*
G54D15*
D03*
X443225Y158475D02*
G54D15*
D03*
X468625Y158475D02*
G54D15*
D03*
X468625Y234675D02*
G54D15*
D03*
X443225Y234675D02*
G54D15*
D03*
X417825Y234675D02*
G54D15*
D03*
X392425Y234675D02*
G54D15*
D03*
X367025Y234675D02*
G54D15*
D03*
X341625Y234675D02*
G54D15*
D03*
X316225Y234675D02*
G54D15*
D03*
X290825Y234675D02*
G54D15*
D03*
X265200Y67300D02*
G54D16*
D03*
X265200Y92700D02*
G54D16*
D03*
G36*
X883850Y424750D02*
X897850Y424750D01*
X897850Y410750D01*
X883850Y410750D01*
X883850Y424750D01*
G37*
X916250Y417750D02*
G54D15*
D03*
X941650Y417750D02*
G54D15*
D03*
X967050Y417750D02*
G54D15*
D03*
X992450Y417750D02*
G54D15*
D03*
X1017850Y417750D02*
G54D15*
D03*
X1043250Y417750D02*
G54D15*
D03*
X1068650Y417750D02*
G54D15*
D03*
X1094050Y417750D02*
G54D15*
D03*
X1119450Y417750D02*
G54D15*
D03*
X1144850Y417750D02*
G54D15*
D03*
X1170250Y417750D02*
G54D15*
D03*
X1195650Y417750D02*
G54D15*
D03*
X1221050Y417750D02*
G54D15*
D03*
X1246450Y417750D02*
G54D15*
D03*
X1271850Y417750D02*
G54D15*
D03*
X1297250Y417750D02*
G54D15*
D03*
X1322650Y417750D02*
G54D15*
D03*
X1348050Y417750D02*
G54D15*
D03*
X1373450Y417750D02*
G54D15*
D03*
X1373450Y570150D02*
G54D15*
D03*
X1348050Y570150D02*
G54D15*
D03*
X1322650Y570150D02*
G54D15*
D03*
X1297250Y570150D02*
G54D15*
D03*
X1271850Y570150D02*
G54D15*
D03*
X1246450Y570150D02*
G54D15*
D03*
X1221050Y570150D02*
G54D15*
D03*
X1195650Y570150D02*
G54D15*
D03*
X1170250Y570150D02*
G54D15*
D03*
X1144850Y570150D02*
G54D15*
D03*
X1119450Y570150D02*
G54D15*
D03*
X1094050Y570150D02*
G54D15*
D03*
X1068650Y570150D02*
G54D15*
D03*
X1043250Y570150D02*
G54D15*
D03*
X1017850Y570150D02*
G54D15*
D03*
X992450Y570150D02*
G54D15*
D03*
X967050Y570150D02*
G54D15*
D03*
X941650Y570150D02*
G54D15*
D03*
X916250Y570150D02*
G54D15*
D03*
X890850Y570150D02*
G54D15*
D03*
G36*
X880500Y195825D02*
X894500Y195825D01*
X894500Y181825D01*
X880500Y181825D01*
X880500Y195825D01*
G37*
X912900Y188825D02*
G54D15*
D03*
X938300Y188825D02*
G54D15*
D03*
X963700Y188825D02*
G54D15*
D03*
X989100Y188825D02*
G54D15*
D03*
X1014500Y188825D02*
G54D15*
D03*
X1039900Y188825D02*
G54D15*
D03*
X1039900Y265025D02*
G54D15*
D03*
X1014500Y265025D02*
G54D15*
D03*
X989100Y265025D02*
G54D15*
D03*
X963700Y265025D02*
G54D15*
D03*
X938300Y265025D02*
G54D15*
D03*
X912900Y265025D02*
G54D15*
D03*
X887500Y265025D02*
G54D15*
D03*
G36*
X880500Y297000D02*
X894500Y297000D01*
X894500Y283000D01*
X880500Y283000D01*
X880500Y297000D01*
G37*
X912900Y290000D02*
G54D15*
D03*
X938300Y290000D02*
G54D15*
D03*
X963700Y290000D02*
G54D15*
D03*
X989100Y290000D02*
G54D15*
D03*
X1014500Y290000D02*
G54D15*
D03*
X1039900Y290000D02*
G54D15*
D03*
X1065300Y290000D02*
G54D15*
D03*
X1090700Y290000D02*
G54D15*
D03*
X1116100Y290000D02*
G54D15*
D03*
X1116100Y366200D02*
G54D15*
D03*
X1090700Y366200D02*
G54D15*
D03*
X1065300Y366200D02*
G54D15*
D03*
X1039900Y366200D02*
G54D15*
D03*
X1014500Y366200D02*
G54D15*
D03*
X989100Y366200D02*
G54D15*
D03*
X963700Y366200D02*
G54D15*
D03*
X938300Y366200D02*
G54D15*
D03*
X912900Y366200D02*
G54D15*
D03*
X887500Y366200D02*
G54D15*
D03*
G36*
X1137675Y625612D02*
X1151675Y625612D01*
X1151675Y611612D01*
X1137675Y611612D01*
X1137675Y625612D01*
G37*
X1170075Y618612D02*
G54D15*
D03*
X1195475Y618612D02*
G54D15*
D03*
X1220875Y618612D02*
G54D15*
D03*
X1246275Y618612D02*
G54D15*
D03*
X1271675Y618612D02*
G54D15*
D03*
X1297075Y618612D02*
G54D15*
D03*
X1322475Y618612D02*
G54D15*
D03*
X1347875Y618612D02*
G54D15*
D03*
X1373275Y618612D02*
G54D15*
D03*
X1373275Y694812D02*
G54D15*
D03*
X1347875Y694812D02*
G54D15*
D03*
X1322475Y694812D02*
G54D15*
D03*
X1297075Y694812D02*
G54D15*
D03*
X1271675Y694812D02*
G54D15*
D03*
X1246275Y694812D02*
G54D15*
D03*
X1220875Y694812D02*
G54D15*
D03*
X1195475Y694812D02*
G54D15*
D03*
X1170075Y694812D02*
G54D15*
D03*
X1144675Y694812D02*
G54D15*
D03*
G36*
X629200Y955800D02*
X643200Y955800D01*
X643200Y941800D01*
X629200Y941800D01*
X629200Y955800D01*
G37*
X661600Y948800D02*
G54D15*
D03*
X687000Y948800D02*
G54D15*
D03*
X712400Y948800D02*
G54D15*
D03*
X737800Y948800D02*
G54D15*
D03*
X763200Y948800D02*
G54D15*
D03*
X788600Y948800D02*
G54D15*
D03*
X814000Y948800D02*
G54D15*
D03*
X814000Y1025000D02*
G54D15*
D03*
X788600Y1025000D02*
G54D15*
D03*
X763200Y1025000D02*
G54D15*
D03*
X737800Y1025000D02*
G54D15*
D03*
X712400Y1025000D02*
G54D15*
D03*
X687000Y1025000D02*
G54D15*
D03*
X661600Y1025000D02*
G54D15*
D03*
X636200Y1025000D02*
G54D15*
D03*
G36*
X629588Y841088D02*
X643588Y841088D01*
X643588Y827088D01*
X629588Y827088D01*
X629588Y841088D01*
G37*
X661988Y834088D02*
G54D15*
D03*
X687388Y834088D02*
G54D15*
D03*
X712788Y834088D02*
G54D15*
D03*
X738188Y834088D02*
G54D15*
D03*
X763588Y834088D02*
G54D15*
D03*
X788988Y834088D02*
G54D15*
D03*
X788988Y910288D02*
G54D15*
D03*
X763588Y910288D02*
G54D15*
D03*
X738188Y910288D02*
G54D15*
D03*
X712788Y910288D02*
G54D15*
D03*
X687388Y910288D02*
G54D15*
D03*
X661988Y910288D02*
G54D15*
D03*
X636588Y910288D02*
G54D15*
D03*
G36*
X629400Y729500D02*
X643400Y729500D01*
X643400Y715500D01*
X629400Y715500D01*
X629400Y729500D01*
G37*
X661800Y722500D02*
G54D15*
D03*
X687200Y722500D02*
G54D15*
D03*
X712600Y722500D02*
G54D15*
D03*
X738000Y722500D02*
G54D15*
D03*
X763400Y722500D02*
G54D15*
D03*
X788800Y722500D02*
G54D15*
D03*
X788800Y798700D02*
G54D15*
D03*
X763400Y798700D02*
G54D15*
D03*
X738000Y798700D02*
G54D15*
D03*
X712600Y798700D02*
G54D15*
D03*
X687200Y798700D02*
G54D15*
D03*
X661800Y798700D02*
G54D15*
D03*
X636400Y798700D02*
G54D15*
D03*
G36*
X895900Y752600D02*
X909900Y752600D01*
X909900Y738600D01*
X895900Y738600D01*
X895900Y752600D01*
G37*
X928300Y745600D02*
G54D15*
D03*
X953700Y745600D02*
G54D15*
D03*
X979100Y745600D02*
G54D15*
D03*
X1004500Y745600D02*
G54D15*
D03*
X1029900Y745600D02*
G54D15*
D03*
X1055300Y745600D02*
G54D15*
D03*
X1080700Y745600D02*
G54D15*
D03*
X1080700Y821800D02*
G54D15*
D03*
X1055300Y821800D02*
G54D15*
D03*
X1029900Y821800D02*
G54D15*
D03*
X1004500Y821800D02*
G54D15*
D03*
X979100Y821800D02*
G54D15*
D03*
X953700Y821800D02*
G54D15*
D03*
X928300Y821800D02*
G54D15*
D03*
X902900Y821800D02*
G54D15*
D03*
G36*
X870500Y877000D02*
X884500Y877000D01*
X884500Y863000D01*
X870500Y863000D01*
X870500Y877000D01*
G37*
X902900Y870000D02*
G54D15*
D03*
X928300Y870000D02*
G54D15*
D03*
X953700Y870000D02*
G54D15*
D03*
X979100Y870000D02*
G54D15*
D03*
X1004500Y870000D02*
G54D15*
D03*
X1029900Y870000D02*
G54D15*
D03*
X1055300Y870000D02*
G54D15*
D03*
X1080700Y870000D02*
G54D15*
D03*
X1106100Y870000D02*
G54D15*
D03*
X1131500Y870000D02*
G54D15*
D03*
X1156900Y870000D02*
G54D15*
D03*
X1182300Y870000D02*
G54D15*
D03*
X1207700Y870000D02*
G54D15*
D03*
X1207700Y1022400D02*
G54D15*
D03*
X1182300Y1022400D02*
G54D15*
D03*
X1156900Y1022400D02*
G54D15*
D03*
X1131500Y1022400D02*
G54D15*
D03*
X1106100Y1022400D02*
G54D15*
D03*
X1080700Y1022400D02*
G54D15*
D03*
X1055300Y1022400D02*
G54D15*
D03*
X1029900Y1022400D02*
G54D15*
D03*
X1004500Y1022400D02*
G54D15*
D03*
X979100Y1022400D02*
G54D15*
D03*
X953700Y1022400D02*
G54D15*
D03*
X928300Y1022400D02*
G54D15*
D03*
X902900Y1022400D02*
G54D15*
D03*
X877500Y1022400D02*
G54D15*
D03*
G36*
X1240500Y949500D02*
X1254500Y949500D01*
X1254500Y935500D01*
X1240500Y935500D01*
X1240500Y949500D01*
G37*
X1272900Y942500D02*
G54D15*
D03*
X1298300Y942500D02*
G54D15*
D03*
X1323700Y942500D02*
G54D15*
D03*
X1349100Y942500D02*
G54D15*
D03*
X1374500Y942500D02*
G54D15*
D03*
X1399900Y942500D02*
G54D15*
D03*
X1399900Y1018700D02*
G54D15*
D03*
X1374500Y1018700D02*
G54D15*
D03*
X1349100Y1018700D02*
G54D15*
D03*
X1323700Y1018700D02*
G54D15*
D03*
X1298300Y1018700D02*
G54D15*
D03*
X1272900Y1018700D02*
G54D15*
D03*
X1247500Y1018700D02*
G54D15*
D03*
G36*
X1213512Y751062D02*
X1227512Y751062D01*
X1227512Y737062D01*
X1213512Y737062D01*
X1213512Y751062D01*
G37*
X1245912Y744062D02*
G54D15*
D03*
X1271312Y744062D02*
G54D15*
D03*
X1296712Y744062D02*
G54D15*
D03*
X1322112Y744062D02*
G54D15*
D03*
X1347512Y744062D02*
G54D15*
D03*
X1372912Y744062D02*
G54D15*
D03*
X1372912Y820262D02*
G54D15*
D03*
X1347512Y820262D02*
G54D15*
D03*
X1322112Y820262D02*
G54D15*
D03*
X1296712Y820262D02*
G54D15*
D03*
X1271312Y820262D02*
G54D15*
D03*
X1245912Y820262D02*
G54D15*
D03*
X1220512Y820262D02*
G54D15*
D03*
G36*
X845500Y627000D02*
X859500Y627000D01*
X859500Y613000D01*
X845500Y613000D01*
X845500Y627000D01*
G37*
X877900Y620000D02*
G54D15*
D03*
X903300Y620000D02*
G54D15*
D03*
X928700Y620000D02*
G54D15*
D03*
X954100Y620000D02*
G54D15*
D03*
X979500Y620000D02*
G54D15*
D03*
X1004900Y620000D02*
G54D15*
D03*
X1030300Y620000D02*
G54D15*
D03*
X1055700Y620000D02*
G54D15*
D03*
X1081100Y620000D02*
G54D15*
D03*
X1081100Y696200D02*
G54D15*
D03*
X1055700Y696200D02*
G54D15*
D03*
X1030300Y696200D02*
G54D15*
D03*
X1004900Y696200D02*
G54D15*
D03*
X979500Y696200D02*
G54D15*
D03*
X954100Y696200D02*
G54D15*
D03*
X928700Y696200D02*
G54D15*
D03*
X903300Y696200D02*
G54D15*
D03*
X877900Y696200D02*
G54D15*
D03*
X852500Y696200D02*
G54D15*
D03*
G36*
X1210500Y194500D02*
X1224500Y194500D01*
X1224500Y180500D01*
X1210500Y180500D01*
X1210500Y194500D01*
G37*
X1242900Y187500D02*
G54D15*
D03*
X1268300Y187500D02*
G54D15*
D03*
X1293700Y187500D02*
G54D15*
D03*
X1319100Y187500D02*
G54D15*
D03*
X1344500Y187500D02*
G54D15*
D03*
X1369900Y187500D02*
G54D15*
D03*
X1369900Y263700D02*
G54D15*
D03*
X1344500Y263700D02*
G54D15*
D03*
X1319100Y263700D02*
G54D15*
D03*
X1293700Y263700D02*
G54D15*
D03*
X1268300Y263700D02*
G54D15*
D03*
X1242900Y263700D02*
G54D15*
D03*
X1217500Y263700D02*
G54D15*
D03*
G36*
X1185500Y297000D02*
X1199500Y297000D01*
X1199500Y283000D01*
X1185500Y283000D01*
X1185500Y297000D01*
G37*
X1217900Y290000D02*
G54D15*
D03*
X1243300Y290000D02*
G54D15*
D03*
X1268700Y290000D02*
G54D15*
D03*
X1294100Y290000D02*
G54D15*
D03*
X1319500Y290000D02*
G54D15*
D03*
X1344900Y290000D02*
G54D15*
D03*
X1370300Y290000D02*
G54D15*
D03*
X1370300Y366200D02*
G54D15*
D03*
X1344900Y366200D02*
G54D15*
D03*
X1319500Y366200D02*
G54D15*
D03*
X1294100Y366200D02*
G54D15*
D03*
X1268700Y366200D02*
G54D15*
D03*
X1243300Y366200D02*
G54D15*
D03*
X1217900Y366200D02*
G54D15*
D03*
X1192500Y366200D02*
G54D15*
D03*
G36*
X694050Y655250D02*
X694050Y641250D01*
X680050Y641250D01*
X680050Y655250D01*
X694050Y655250D01*
G37*
X687050Y622850D02*
G54D15*
D03*
X687050Y597450D02*
G54D15*
D03*
X687050Y572050D02*
G54D15*
D03*
X687050Y546650D02*
G54D15*
D03*
X687050Y521250D02*
G54D15*
D03*
X687050Y495850D02*
G54D15*
D03*
X687050Y470450D02*
G54D15*
D03*
X763250Y470450D02*
G54D15*
D03*
X763250Y495850D02*
G54D15*
D03*
X763250Y521250D02*
G54D15*
D03*
X763250Y546650D02*
G54D15*
D03*
X763250Y572050D02*
G54D15*
D03*
X763250Y597450D02*
G54D15*
D03*
X763250Y622850D02*
G54D15*
D03*
X763250Y648250D02*
G54D15*
D03*
G36*
X692800Y426500D02*
X692800Y412500D01*
X678800Y412500D01*
X678800Y426500D01*
X692800Y426500D01*
G37*
X685800Y394100D02*
G54D15*
D03*
X685800Y368700D02*
G54D15*
D03*
X685800Y343300D02*
G54D15*
D03*
X685800Y317900D02*
G54D15*
D03*
X685800Y292500D02*
G54D15*
D03*
X685800Y267100D02*
G54D15*
D03*
X685800Y241700D02*
G54D15*
D03*
X762000Y241700D02*
G54D15*
D03*
X762000Y267100D02*
G54D15*
D03*
X762000Y292500D02*
G54D15*
D03*
X762000Y317900D02*
G54D15*
D03*
X762000Y343300D02*
G54D15*
D03*
X762000Y368700D02*
G54D15*
D03*
X762000Y394100D02*
G54D15*
D03*
X762000Y419500D02*
G54D15*
D03*
G36*
X883100Y399400D02*
X891900Y399400D01*
X891900Y390600D01*
X883100Y390600D01*
X883100Y399400D01*
G37*
X912900Y395000D02*
G54D17*
D03*
X938300Y395000D02*
G54D17*
D03*
X963700Y395000D02*
G54D17*
D03*
X989100Y395000D02*
G54D17*
D03*
X1014500Y395000D02*
G54D17*
D03*
X1039900Y395000D02*
G54D17*
D03*
X1065300Y395000D02*
G54D17*
D03*
G36*
X613700Y691200D02*
X613700Y682400D01*
X604900Y682400D01*
X604900Y691200D01*
X613700Y691200D01*
G37*
X609300Y661400D02*
G54D17*
D03*
X609300Y636000D02*
G54D17*
D03*
X609300Y610600D02*
G54D17*
D03*
X609300Y585200D02*
G54D17*
D03*
X609300Y559800D02*
G54D17*
D03*
X609300Y534400D02*
G54D17*
D03*
X609300Y509000D02*
G54D17*
D03*
X609300Y483600D02*
G54D17*
D03*
X609300Y458200D02*
G54D17*
D03*
G36*
X613700Y424500D02*
X613700Y415700D01*
X604900Y415700D01*
X604900Y424500D01*
X613700Y424500D01*
G37*
X609300Y394700D02*
G54D17*
D03*
X609300Y369300D02*
G54D17*
D03*
X609300Y343900D02*
G54D17*
D03*
X609300Y318500D02*
G54D17*
D03*
X609300Y293100D02*
G54D17*
D03*
X609300Y267700D02*
G54D17*
D03*
X609300Y242300D02*
G54D17*
D03*
X609300Y216900D02*
G54D17*
D03*
X609300Y191500D02*
G54D17*
D03*
G36*
X551100Y728900D02*
X563900Y728900D01*
X563900Y716100D01*
X551100Y716100D01*
X551100Y728900D01*
G37*
X557500Y747900D02*
G54D18*
D03*
X582900Y722500D02*
G54D18*
D03*
X582900Y747900D02*
G54D18*
D03*
G54D19*
X28138Y45250D02*
X34138Y29250D01*
X40138Y45250D01*
G54D19*
X52938Y30250D02*
X51018Y29250D01*
X48618Y29250D01*
X46218Y30250D01*
X45738Y32250D01*
X45738Y35650D01*
X46938Y37650D01*
X49338Y38250D01*
X51738Y37650D01*
X52938Y36250D01*
X52938Y34250D01*
X45738Y34250D01*
G54D19*
X58538Y29250D02*
X58538Y38250D01*
G54D19*
X58538Y36250D02*
X60938Y38250D01*
X63338Y38250D01*
G54D19*
X68938Y30250D02*
X71338Y29250D01*
X73738Y29250D01*
X76138Y30250D01*
X76138Y32250D01*
X74938Y33250D01*
X70138Y34250D01*
X68938Y35250D01*
X68938Y37250D01*
X71338Y38250D01*
X73738Y38250D01*
X76138Y37250D01*
G54D19*
X81738Y29250D02*
X81738Y38250D01*
G54D19*
X81738Y41250D02*
X81738Y41250D01*
G54D19*
X94538Y31650D02*
X94538Y35650D01*
X93338Y37650D01*
X90938Y38250D01*
X88538Y37650D01*
X87338Y35650D01*
X87338Y31650D01*
X88538Y29650D01*
X90938Y29250D01*
X93338Y29650D01*
X94538Y31650D01*
G54D19*
X100138Y29250D02*
X100138Y38250D01*
G54D19*
X100138Y36250D02*
X101338Y37650D01*
X103738Y38250D01*
X106138Y37650D01*
X107338Y36250D01*
X107338Y29250D01*
G54D19*
X118778Y39250D02*
X124778Y45250D01*
X124778Y29250D01*
G54D19*
X130378Y29250D02*
X130378Y29250D01*
G54D19*
X143178Y29250D02*
X143178Y45250D01*
X135978Y35250D01*
X135978Y33250D01*
X145578Y33250D01*
G54D19*
X157018Y36250D02*
X166618Y36250D01*
G54D19*
X187658Y29250D02*
X178058Y29250D01*
X178058Y30250D01*
X179258Y32250D01*
X186458Y38250D01*
X187658Y40250D01*
X187658Y42250D01*
X186458Y44250D01*
X184058Y45250D01*
X181658Y45250D01*
X179258Y44250D01*
X178058Y42250D01*
G54D19*
X202858Y42250D02*
X202858Y32250D01*
X201658Y30250D01*
X199258Y29250D01*
X196858Y29250D01*
X194458Y30250D01*
X193258Y32250D01*
X193258Y42250D01*
X194458Y44250D01*
X196858Y45250D01*
X199258Y45250D01*
X201658Y44250D01*
X202858Y42250D01*
G54D19*
X218058Y29250D02*
X208458Y29250D01*
X208458Y30250D01*
X209658Y32250D01*
X216858Y38250D01*
X218058Y40250D01*
X218058Y42250D01*
X216858Y44250D01*
X214458Y45250D01*
X212058Y45250D01*
X209658Y44250D01*
X208458Y42250D01*
G54D19*
X233258Y42250D02*
X233258Y32250D01*
X232058Y30250D01*
X229658Y29250D01*
X227258Y29250D01*
X224858Y30250D01*
X223658Y32250D01*
X223658Y42250D01*
X224858Y44250D01*
X227258Y45250D01*
X229658Y45250D01*
X232058Y44250D01*
X233258Y42250D01*
G54D19*
X238858Y36250D02*
X248458Y36250D01*
G54D19*
X263658Y42250D02*
X263658Y32250D01*
X262458Y30250D01*
X260058Y29250D01*
X257658Y29250D01*
X255258Y30250D01*
X254058Y32250D01*
X254058Y42250D01*
X255258Y44250D01*
X257658Y45250D01*
X260058Y45250D01*
X262458Y44250D01*
X263658Y42250D01*
G54D19*
X278858Y45250D02*
X269258Y45250D01*
X269258Y38250D01*
X270458Y38250D01*
X272858Y39250D01*
X275258Y39250D01*
X277658Y38250D01*
X278858Y36250D01*
X278858Y32250D01*
X277658Y30250D01*
X275258Y29250D01*
X272858Y29250D01*
X270458Y30250D01*
X269258Y32250D01*
G54D19*
X284458Y36250D02*
X294058Y36250D01*
G54D19*
X299658Y39250D02*
X305658Y45250D01*
X305658Y29250D01*
G54D19*
X320858Y42250D02*
X319658Y44250D01*
X317258Y45250D01*
X314858Y45250D01*
X312458Y44250D01*
X311258Y42250D01*
X311258Y37250D01*
X311258Y36250D01*
X314858Y38250D01*
X317258Y38250D01*
X319658Y37250D01*
X320858Y35250D01*
X320858Y32250D01*
X319658Y30250D01*
X317258Y29250D01*
X314858Y29250D01*
X312458Y30250D01*
X311258Y32250D01*
X311258Y37250D01*
X660400Y44450D02*
G54D20*
D03*
X685800Y44450D02*
G54D20*
D03*
X711200Y44450D02*
G54D20*
D03*
X736600Y44450D02*
G54D20*
D03*
X762000Y44450D02*
G54D20*
D03*
X787400Y44450D02*
G54D20*
D03*
X812800Y44450D02*
G54D20*
D03*
X838200Y44450D02*
G54D20*
D03*
X863600Y44450D02*
G54D20*
D03*
X889000Y44450D02*
G54D20*
D03*
X914400Y44450D02*
G54D20*
D03*
X939800Y44450D02*
G54D20*
D03*
X965200Y44450D02*
G54D20*
D03*
X990600Y44450D02*
G54D20*
D03*
X1016000Y44450D02*
G54D20*
D03*
X1041400Y44450D02*
G54D20*
D03*
X1066800Y44450D02*
G54D20*
D03*
X1092200Y44450D02*
G54D20*
D03*
X1117600Y44450D02*
G54D20*
D03*
X1143000Y44450D02*
G54D20*
D03*
X1168400Y44450D02*
G54D20*
D03*
X1193800Y44450D02*
G54D20*
D03*
X635000Y44450D02*
G54D20*
D03*
X609600Y44450D02*
G54D20*
D03*
X584200Y44450D02*
G54D20*
D03*
X558800Y44450D02*
G54D20*
D03*
X533400Y44450D02*
G54D20*
D03*
X508000Y44450D02*
G54D20*
D03*
X482600Y44450D02*
G54D20*
D03*
X457200Y44450D02*
G54D20*
D03*
X431800Y44450D02*
G54D20*
D03*
G54D21*
X948200Y912833D02*
X950600Y911500D01*
X951400Y910167D01*
X951400Y907500D01*
G54D21*
X945000Y907500D02*
X945000Y918167D01*
X949000Y918167D01*
X950600Y917500D01*
X951400Y916167D01*
X951400Y914833D01*
X950600Y913500D01*
X949000Y912833D01*
X945000Y912833D01*
G54D21*
X959933Y908167D02*
X958653Y907500D01*
X957053Y907500D01*
X955453Y908167D01*
X955133Y909500D01*
X955133Y911767D01*
X955933Y913100D01*
X957533Y913500D01*
X959133Y913100D01*
X959933Y912167D01*
X959933Y910833D01*
X955133Y910833D01*
G54D21*
X963666Y913500D02*
X963666Y904833D01*
G54D21*
X963666Y909500D02*
X964466Y907767D01*
X966066Y907500D01*
X967666Y907767D01*
X968466Y909100D01*
X968466Y911767D01*
X967666Y913100D01*
X966066Y913500D01*
X964466Y913100D01*
X963666Y911500D01*
G54D21*
X972199Y907500D02*
X972199Y913500D01*
G54D21*
X972199Y912167D02*
X973799Y913500D01*
X975399Y913500D01*
G54D21*
X983932Y909100D02*
X983932Y911767D01*
X983132Y913100D01*
X981532Y913500D01*
X979932Y913100D01*
X979132Y911767D01*
X979132Y909100D01*
X979932Y907767D01*
X981532Y907500D01*
X983132Y907767D01*
X983932Y909100D01*
G54D21*
X992465Y907500D02*
X992465Y918167D01*
G54D21*
X992465Y911767D02*
X991665Y913100D01*
X990065Y913500D01*
X988465Y913100D01*
X987665Y911767D01*
X987665Y909100D01*
X988465Y907767D01*
X990065Y907500D01*
X991665Y907767D01*
X992465Y909100D01*
G54D21*
X1000998Y913500D02*
X1000998Y907500D01*
G54D21*
X1000998Y908833D02*
X1000198Y907767D01*
X998598Y907500D01*
X996998Y907767D01*
X996198Y908833D01*
X996198Y913500D01*
G54D21*
X1008731Y913100D02*
X1007131Y913500D01*
X1005531Y913100D01*
X1004731Y911767D01*
X1004731Y909100D01*
X1005531Y907767D01*
X1007131Y907500D01*
X1008731Y907767D01*
G54D21*
X1014064Y918167D02*
X1014064Y908167D01*
X1014864Y907500D01*
X1015664Y907767D01*
G54D21*
X1012464Y913500D02*
X1015664Y913500D01*
G54D21*
X1019397Y907500D02*
X1019397Y913500D01*
G54D21*
X1019397Y915500D02*
X1019397Y915500D01*
G54D21*
X1027930Y909100D02*
X1027930Y911767D01*
X1027130Y913100D01*
X1025530Y913500D01*
X1023930Y913100D01*
X1023130Y911767D01*
X1023130Y909100D01*
X1023930Y907767D01*
X1025530Y907500D01*
X1027130Y907767D01*
X1027930Y909100D01*
G54D21*
X1031663Y907500D02*
X1031663Y913500D01*
G54D21*
X1031663Y912167D02*
X1032463Y913100D01*
X1034063Y913500D01*
X1035663Y913100D01*
X1036463Y912167D01*
X1036463Y907500D01*
G54D11*
X1000125Y139700D02*
X1000125Y140125D01*
X1015000Y155000D01*
X1015000Y188325D01*
X1014500Y188825D01*
G54D11*
X887500Y188825D02*
X898675Y188825D01*
X900000Y187500D01*
G54D11*
X1014500Y395000D02*
X1014500Y414400D01*
X1017850Y417750D01*
M02*
