; Drill file
; Format: 2.4 (00.0000)
M48
INCH
T01C0.0118
T02C0.022
T03C0.0236
T04C0.0283
T05C0.0315
%
G05
G90
T01
X002870Y007750
X003000Y012250
X003000Y016630
X003000Y021120
X003000Y025620
X003000Y030130
X003120Y034620
X003250Y039000
X009630Y041620
X013250Y038880
X013120Y034500
X013250Y030130
X013000Y025500
X013000Y021000
X012880Y016630
X013000Y012250
X013000Y007750
X017000Y005250
X017880Y004750
X018870Y004380
X020000Y004250
X023000Y006000
X020870Y007620
X022500Y009120
X023250Y010120
X021880Y011130
X020870Y012120
X021560Y013870
X022940Y015120
X023500Y016060
X022630Y017060
X020940Y016560
X022500Y019000
X022500Y021500
X023440Y022560
X024620Y024500
X025870Y025500
X026440Y024000
X025940Y022940
X025500Y021440
X025690Y020000
X026440Y016060
X028880Y016880
X029940Y017190
X032190Y017750
X032000Y019620
X031440Y020750
X031380Y021500
X031380Y023940
X034250Y025940
X034940Y023440
X036940Y023370
X037500Y021500
X038500Y020380
X039000Y019000
X040000Y019880
X040440Y019000
X041000Y019440
X041440Y021380
X042440Y020940
X043500Y019380
X044440Y019440
X046940Y018440
X045940Y017190
X044560Y014940
X042940Y015690
X041940Y013440
X039500Y013440
X038370Y009560
X039000Y009250
X039380Y008440
X040440Y008380
X040940Y009000
X041810Y009380
X041620Y007000
X042000Y006620
X042870Y006620
X042370Y005620
X041500Y004380
X041380Y003620
X039380Y005500
X038370Y004870
X037880Y004120
X037250Y003750
X036380Y003620
X035380Y003620
X034380Y003620
X033500Y003620
X032370Y003750
X030380Y003750
X028370Y003620
X027370Y003750
X025380Y004250
X028250Y007620
X026000Y009120
X027630Y011130
X028500Y013000
X032370Y013750
X033370Y014000
X034810Y013560
X035560Y012120
X032250Y010120
X031120Y009750
X031630Y008750
X033880Y005620
X034380Y005250
X035870Y005880
X036880Y005880
X037440Y008000
X043880Y007620
X046000Y008630
X046440Y008120
X046880Y007750
X048500Y006940
X046380Y005060
X046250Y004500
X045880Y004060
X046000Y003440
X045370Y003500
X045690Y010560
X045440Y011060
X044940Y011500
X049940Y009440
X050440Y009120
X053940Y009250
X053940Y008630
X053940Y008120
X054060Y012690
X051940Y013440
X051380Y012880
X053560Y015440
X050440Y017310
X050000Y018370
X049000Y018870
X051440Y020310
X052130Y019560
X052630Y021060
X052630Y025690
X052060Y026560
X051060Y026120
X050060Y025750
X047560Y025310
X045500Y025380
X042630Y025380
X042060Y028000
X043190Y030500
X044560Y029250
X046000Y029620
X044310Y032310
X046500Y033190
X047060Y035380
X048120Y035190
X045060Y036250
X043120Y036440
X040620Y037310
X039810Y033560
X041060Y032750
X038560Y031310
X035560Y031500
X034500Y030560
X033560Y029310
X032940Y029310
X032940Y030380
X031750Y029000
X031060Y027690
X029500Y027370
X028500Y026940
X027940Y027690
X027690Y025750
X024810Y027000
X024250Y027810
X022750Y027000
X021000Y025500
X020870Y021060
X023370Y013120
X034000Y018870
X034940Y018560
X036060Y018940
X037000Y020000
X037500Y018500
X038500Y017500
X039940Y025500
X033880Y032310
X033060Y032880
X032560Y032750
X032120Y033880
X030560Y032000
X029060Y030690
X030000Y029380
X027560Y029870
X026940Y030130
X025940Y029690
X025500Y029000
X025000Y030500
X023690Y030870
X022880Y030130
X022880Y033440
X024060Y035250
X026630Y035250
X028560Y036750
X029560Y038060
X033000Y037310
X035060Y037310
X024440Y039810
X022440Y038810
X020620Y037000
X021190Y036560
X020130Y036250
X019500Y033940
X019130Y030000
X021560Y041310
X022440Y041750
X046120Y038810
X048120Y038440
X049500Y041250
X053440Y041310
X054500Y038440
X055560Y039000
X053560Y026810
X009380Y003250
T02
X023990Y007540
X023990Y008540
X023990Y009540
X023990Y010540
X023990Y011540
X023990Y012540
X023990Y013540
X023990Y014540
X023990Y015540
X023990Y016540
X023990Y018040
X023990Y019040
X023990Y020040
X023990Y021040
X023990Y022040
X023990Y023040
X023990Y024040
X023990Y025040
X023990Y026040
X023990Y027040
X034940Y015550
X035940Y015550
X036940Y015550
X037940Y015550
X038940Y015550
X039940Y015550
X040940Y015550
X041940Y015550
T03
X010440Y002650
X010440Y003650
T04
X001440Y006250
X002440Y006250
X003440Y006250
X004440Y006250
X005440Y006250
X006440Y006250
X007440Y006250
X008440Y006250
X008440Y009250
X007440Y009250
X006440Y009250
X005440Y009250
X004440Y009250
X003440Y009250
X002440Y009250
X001440Y009250
X001440Y010680
X002440Y010680
X003440Y010680
X004440Y010680
X005440Y010680
X006440Y010680
X007440Y010680
X008440Y010680
X008440Y013680
X007440Y013680
X006440Y013680
X005440Y013680
X004440Y013680
X003440Y013680
X002440Y013680
X001440Y013680
X001440Y015210
X002440Y015210
X003440Y015210
X004440Y015210
X005440Y015210
X006440Y015210
X007440Y015210
X008440Y015210
X008440Y018210
X007440Y018210
X006440Y018210
X005440Y018210
X004440Y018210
X003440Y018210
X002440Y018210
X001440Y018210
X001540Y019620
X002540Y019620
X003540Y019620
X004540Y019620
X005540Y019620
X006540Y019620
X007540Y019620
X008540Y019620
X011510Y019680
X012510Y019680
X013510Y019680
X014510Y019680
X015510Y019680
X016510Y019680
X017510Y019680
X018510Y019680
X018510Y018180
X017510Y018180
X016510Y018180
X015510Y018180
X014510Y018180
X013510Y018180
X012510Y018180
X011510Y018180
X011510Y015180
X012510Y015180
X013510Y015180
X014510Y015180
X015510Y015180
X016510Y015180
X017510Y015180
X018510Y015180
X018510Y013680
X017510Y013680
X016510Y013680
X015510Y013680
X014510Y013680
X013510Y013680
X012510Y013680
X011510Y013680
X011510Y010680
X012510Y010680
X013510Y010680
X014510Y010680
X015510Y010680
X016510Y010680
X017510Y010680
X018510Y010680
X018450Y009240
X017450Y009240
X016450Y009240
X015450Y009240
X014450Y009240
X013450Y009240
X012450Y009240
X011450Y009240
X011450Y006240
X012450Y006240
X013450Y006240
X014450Y006240
X015450Y006240
X016450Y006240
X017450Y006240
X018450Y006240
X027000Y009520
X027000Y010520
X027000Y011520
X027000Y012520
X027000Y013520
X027000Y014520
X027000Y015520
X027000Y016520
X027050Y018520
X027050Y019520
X027050Y020520
X027050Y021520
X027050Y022520
X027050Y023520
X027050Y024520
X027050Y025520
X027060Y028440
X026060Y028440
X025060Y028440
X022950Y028440
X021950Y028440
X021950Y029440
X022950Y029440
X025060Y031440
X026060Y031440
X027060Y031440
X028060Y031440
X029060Y031440
X030060Y031440
X031060Y031440
X031060Y032840
X030060Y032840
X029060Y032840
X028060Y032840
X027060Y032840
X026060Y032840
X025060Y032840
X025060Y035840
X026060Y035840
X027060Y035840
X028060Y035840
X029060Y035840
X030060Y035840
X031060Y035840
X031050Y037350
X030050Y037350
X029050Y037350
X028050Y037350
X027050Y037350
X026050Y037350
X025050Y037350
X025050Y040350
X026050Y040350
X027050Y040350
X028050Y040350
X029050Y040350
X030050Y040350
X031050Y040350
X032050Y040350
X034550Y040250
X035550Y040250
X036550Y040250
X037550Y040250
X038550Y040250
X039550Y040250
X040550Y040250
X041550Y040250
X042550Y040250
X043550Y040250
X044550Y040250
X045550Y040250
X046550Y040250
X047550Y040250
X049110Y040110
X050110Y040110
X051110Y040110
X052110Y040110
X053110Y040110
X054110Y040110
X055110Y040110
X055110Y037110
X054110Y037110
X053110Y037110
X052110Y037110
X051110Y037110
X050110Y037110
X049110Y037110
X047550Y034250
X046550Y034250
X045550Y034250
X044550Y034250
X043550Y034250
X042550Y034250
X041550Y034250
X040550Y034250
X039550Y034250
X038550Y034250
X037550Y034250
X036550Y034250
X035550Y034250
X034550Y034250
X035550Y032350
X036550Y032350
X037550Y032350
X038550Y032350
X039550Y032350
X040550Y032350
X041550Y032350
X042550Y032350
X042550Y029350
X041550Y029350
X040550Y029350
X039550Y029350
X038550Y029350
X037550Y029350
X036550Y029350
X035550Y029350
X035560Y027410
X036560Y027410
X037560Y027410
X038560Y027410
X039560Y027410
X040560Y027410
X041560Y027410
X042560Y027410
X045070Y027350
X046070Y027350
X047070Y027350
X048070Y027350
X049070Y027350
X050070Y027350
X051070Y027350
X052070Y027350
X053070Y027350
X054070Y027350
X054050Y029290
X053050Y029290
X052050Y029290
X051050Y029290
X050050Y029290
X049050Y029290
X048050Y029290
X048050Y032290
X049050Y032290
X050050Y032290
X051050Y032290
X052050Y032290
X053050Y032290
X054050Y032290
X054070Y024350
X053070Y024350
X052070Y024350
X051070Y024350
X050070Y024350
X049070Y024350
X048070Y024350
X047070Y024350
X046070Y024350
X045070Y024350
X045070Y022450
X046070Y022450
X047070Y022450
X048070Y022450
X049070Y022450
X050070Y022450
X051070Y022450
X052070Y022450
X053070Y022450
X054070Y022450
X054070Y016450
X053070Y016450
X052070Y016450
X051070Y016450
X050070Y016450
X049070Y016450
X048070Y016450
X047070Y016450
X046070Y016450
X045070Y016450
X044070Y016450
X043070Y016450
X042070Y016450
X041070Y016450
X040070Y016450
X039070Y016450
X038070Y016450
X037070Y016450
X036070Y016450
X035070Y016450
X034940Y014420
X035940Y014420
X036940Y014420
X037940Y014420
X038940Y014420
X039940Y014420
X040940Y014420
X041940Y014420
X042940Y014420
X043940Y014420
X043940Y011420
X042940Y011420
X041940Y011420
X040940Y011420
X040940Y010430
X039940Y010430
X039940Y011420
X038940Y011420
X038940Y010430
X037940Y010430
X037940Y011420
X036940Y011420
X036940Y010430
X035940Y010430
X035940Y011420
X034940Y011420
X034940Y010430
X034940Y007430
X035940Y007430
X036940Y007430
X037940Y007430
X038940Y007430
X039940Y007430
X040940Y007430
X047930Y007380
X048930Y007380
X049930Y007380
X050930Y007380
X051930Y007380
X052930Y007380
X053930Y007380
X053930Y010380
X052930Y010380
X051930Y010380
X050930Y010380
X049930Y010380
X048930Y010380
X047930Y010380
X047950Y011420
X046950Y011420
X048950Y011420
X049950Y011420
X050950Y011420
X051950Y011420
X052950Y011420
X053950Y011420
X053950Y014420
X052950Y014420
X051950Y014420
X050950Y014420
X049950Y014420
X048950Y014420
X047950Y014420
X046950Y014420
X044070Y022450
X043070Y022450
X042070Y022450
X041070Y022450
X040070Y022450
X039070Y022450
X038070Y022450
X037070Y022450
X036070Y022450
X035070Y022450
X035560Y024410
X034560Y024410
X033560Y024410
X036560Y024410
X037560Y024410
X038560Y024410
X039560Y024410
X040560Y024410
X041560Y024410
X042560Y024410
X034560Y027410
X033560Y027410
X031060Y028440
X030060Y028440
X029060Y028440
X028060Y028440
X030050Y025520
X030050Y024520
X030050Y023520
X030050Y022520
X030050Y021520
X030050Y020520
X030050Y019520
X030050Y018520
X030000Y016520
X030000Y015520
X030000Y014520
X030000Y013520
X030000Y012520
X030000Y011520
X030000Y010520
X030000Y009520
X018510Y022680
X017510Y022680
X016510Y022680
X015510Y022680
X014510Y022680
X013510Y022680
X012510Y022680
X011510Y022680
X011570Y024050
X012570Y024050
X013570Y024050
X014570Y024050
X015570Y024050
X016570Y024050
X017570Y024050
X018570Y024050
X018570Y027050
X017570Y027050
X016570Y027050
X015570Y027050
X014570Y027050
X013570Y027050
X012570Y027050
X011570Y027050
X011610Y028550
X012610Y028550
X013610Y028550
X014610Y028550
X015610Y028550
X016610Y028550
X017610Y028550
X018610Y028550
X018610Y031550
X017610Y031550
X016610Y031550
X015610Y031550
X014610Y031550
X013610Y031550
X012610Y031550
X011610Y031550
X011610Y032990
X012610Y032990
X013610Y032990
X014610Y032990
X015610Y032990
X016610Y032990
X017610Y032990
X018610Y032990
X018610Y035990
X017610Y035990
X016610Y035990
X015610Y035990
X014610Y035990
X013610Y035990
X012610Y035990
X011610Y035990
X011610Y037490
X012610Y037490
X013610Y037490
X014610Y037490
X015610Y037490
X016610Y037490
X017610Y037490
X018610Y037490
X018610Y040490
X017610Y040490
X016610Y040490
X015610Y040490
X014610Y040490
X013610Y040490
X012610Y040490
X011610Y040490
X008670Y040490
X007670Y040490
X006670Y040490
X005670Y040490
X004670Y040490
X003670Y040490
X002670Y040490
X001670Y040490
X001670Y037490
X002670Y037490
X003670Y037490
X004670Y037490
X005670Y037490
X006670Y037490
X007670Y037490
X008670Y037490
X008570Y036070
X007570Y036070
X006570Y036070
X005570Y036070
X004570Y036070
X003570Y036070
X002570Y036070
X001570Y036070
X001570Y033070
X002570Y033070
X003570Y033070
X004570Y033070
X005570Y033070
X006570Y033070
X007570Y033070
X008570Y033070
X008570Y031540
X007570Y031540
X006570Y031540
X005570Y031540
X004570Y031540
X003570Y031540
X002570Y031540
X001570Y031540
X001570Y028540
X002570Y028540
X003570Y028540
X004570Y028540
X005570Y028540
X006570Y028540
X007570Y028540
X008570Y028540
X008570Y027110
X007570Y027110
X006570Y027110
X005570Y027110
X004570Y027110
X003570Y027110
X002570Y027110
X001570Y027110
X001570Y024110
X002570Y024110
X003570Y024110
X004570Y024110
X005570Y024110
X006570Y024110
X007570Y024110
X008570Y024110
X008540Y022630
X007540Y022630
X006540Y022630
X005540Y022630
X004540Y022630
X003540Y022630
X002540Y022630
X001540Y022630
X032050Y037350
T05
X009940Y006400
X009940Y008760
X009940Y010830
X009940Y013190
X009940Y015260
X009940Y017620
X009940Y019690
X009940Y022050
X010040Y024110
X010040Y026480
X010040Y028640
X010040Y031000
X010040Y033070
X010040Y035430
X010040Y037600
X010040Y039960
X019590Y039860
X019590Y037500
X019590Y035530
X019590Y033170
X019490Y031100
X019490Y028740
X019490Y026480
X019490Y024110
X019490Y021950
X019490Y019590
X019490Y017520
X019490Y015160
X019390Y013090
X019390Y010730
X019490Y008660
X019490Y006300
X032680Y007870
X033960Y007970
X033960Y010330
X033960Y012010
X032680Y012600
X033960Y014370
X029920Y026480
X027560Y026480
X023520Y037990
X023520Y040350
X043900Y027360
X043900Y025000
M30
