%FSLAX34Y34*%
%MOMM*%
%LNSOLDERMASK_TOP*%
G71*
G01*
%ADD10C,2.200*%
%ADD11C,2.000*%
%ADD12C,2.400*%
%ADD13C,1.480*%
%ADD14C,1.880*%
%ADD15R,1.800X7.200*%
%LPD*%
X700000Y672500D02*
G54D10*
D03*
X760000Y672500D02*
G54D10*
D03*
X862500Y262500D02*
G54D10*
D03*
X862500Y202500D02*
G54D10*
D03*
X862500Y365000D02*
G54D10*
D03*
X862500Y305000D02*
G54D10*
D03*
X495000Y220000D02*
G54D10*
D03*
X495000Y160000D02*
G54D10*
D03*
X492500Y332500D02*
G54D10*
D03*
X492500Y272500D02*
G54D10*
D03*
X495000Y445000D02*
G54D10*
D03*
X495000Y385000D02*
G54D10*
D03*
X495000Y557500D02*
G54D10*
D03*
X495000Y497500D02*
G54D10*
D03*
X495000Y672500D02*
G54D10*
D03*
X495000Y612500D02*
G54D10*
D03*
X495000Y790000D02*
G54D10*
D03*
X495000Y730000D02*
G54D10*
D03*
X497500Y902500D02*
G54D10*
D03*
X497500Y842500D02*
G54D10*
D03*
X497500Y1012500D02*
G54D10*
D03*
X497500Y952500D02*
G54D10*
D03*
X597500Y1025000D02*
G54D10*
D03*
X597500Y965000D02*
G54D10*
D03*
X1115000Y695000D02*
G54D10*
D03*
X1115000Y635000D02*
G54D10*
D03*
X255000Y1015000D02*
G54D10*
D03*
X255000Y955000D02*
G54D10*
D03*
X255000Y900000D02*
G54D10*
D03*
X255000Y840000D02*
G54D10*
D03*
X255000Y787500D02*
G54D10*
D03*
X255000Y727500D02*
G54D10*
D03*
X255000Y672500D02*
G54D10*
D03*
X255000Y612500D02*
G54D10*
D03*
X252500Y560000D02*
G54D10*
D03*
X252500Y500000D02*
G54D10*
D03*
X252500Y447500D02*
G54D10*
D03*
X252500Y387500D02*
G54D10*
D03*
X252500Y335000D02*
G54D10*
D03*
X252500Y275000D02*
G54D10*
D03*
X252500Y222500D02*
G54D10*
D03*
X252500Y162500D02*
G54D10*
D03*
X830000Y320000D02*
G54D10*
D03*
X830000Y200000D02*
G54D10*
D03*
G36*
X32500Y962138D02*
X52500Y962138D01*
X52500Y942138D01*
X32500Y942138D01*
X32500Y962138D01*
G37*
X67900Y952138D02*
G54D11*
D03*
X93300Y952138D02*
G54D11*
D03*
X118700Y952138D02*
G54D11*
D03*
X144100Y952138D02*
G54D11*
D03*
X169500Y952138D02*
G54D11*
D03*
X194900Y952138D02*
G54D11*
D03*
X220300Y952138D02*
G54D11*
D03*
X220300Y1028338D02*
G54D11*
D03*
X194900Y1028338D02*
G54D11*
D03*
X169500Y1028338D02*
G54D11*
D03*
X144100Y1028338D02*
G54D11*
D03*
X118700Y1028338D02*
G54D11*
D03*
X93300Y1028338D02*
G54D11*
D03*
X67900Y1028338D02*
G54D11*
D03*
X42500Y1028338D02*
G54D11*
D03*
G36*
X30000Y850000D02*
X50000Y850000D01*
X50000Y830000D01*
X30000Y830000D01*
X30000Y850000D01*
G37*
X65400Y840000D02*
G54D11*
D03*
X90800Y840000D02*
G54D11*
D03*
X116200Y840000D02*
G54D11*
D03*
X141600Y840000D02*
G54D11*
D03*
X167000Y840000D02*
G54D11*
D03*
X192400Y840000D02*
G54D11*
D03*
X217800Y840000D02*
G54D11*
D03*
X217800Y916200D02*
G54D11*
D03*
X192400Y916200D02*
G54D11*
D03*
X167000Y916200D02*
G54D11*
D03*
X141600Y916200D02*
G54D11*
D03*
X116200Y916200D02*
G54D11*
D03*
X90800Y916200D02*
G54D11*
D03*
X65400Y916200D02*
G54D11*
D03*
X40000Y916200D02*
G54D11*
D03*
G36*
X30000Y735000D02*
X50000Y735000D01*
X50000Y715000D01*
X30000Y715000D01*
X30000Y735000D01*
G37*
X65400Y725000D02*
G54D11*
D03*
X90800Y725000D02*
G54D11*
D03*
X116200Y725000D02*
G54D11*
D03*
X141600Y725000D02*
G54D11*
D03*
X167000Y725000D02*
G54D11*
D03*
X192400Y725000D02*
G54D11*
D03*
X217800Y725000D02*
G54D11*
D03*
X217800Y801200D02*
G54D11*
D03*
X192400Y801200D02*
G54D11*
D03*
X167000Y801200D02*
G54D11*
D03*
X141600Y801200D02*
G54D11*
D03*
X116200Y801200D02*
G54D11*
D03*
X90800Y801200D02*
G54D11*
D03*
X65400Y801200D02*
G54D11*
D03*
X40000Y801200D02*
G54D11*
D03*
G36*
X30000Y622500D02*
X50000Y622500D01*
X50000Y602500D01*
X30000Y602500D01*
X30000Y622500D01*
G37*
X65400Y612500D02*
G54D11*
D03*
X90800Y612500D02*
G54D11*
D03*
X116200Y612500D02*
G54D11*
D03*
X141600Y612500D02*
G54D11*
D03*
X167000Y612500D02*
G54D11*
D03*
X192400Y612500D02*
G54D11*
D03*
X217800Y612500D02*
G54D11*
D03*
X217800Y688700D02*
G54D11*
D03*
X192400Y688700D02*
G54D11*
D03*
X167000Y688700D02*
G54D11*
D03*
X141600Y688700D02*
G54D11*
D03*
X116200Y688700D02*
G54D11*
D03*
X90800Y688700D02*
G54D11*
D03*
X65400Y688700D02*
G54D11*
D03*
X40000Y688700D02*
G54D11*
D03*
G36*
X29025Y508475D02*
X49025Y508475D01*
X49025Y488475D01*
X29025Y488475D01*
X29025Y508475D01*
G37*
X64425Y498475D02*
G54D11*
D03*
X89825Y498475D02*
G54D11*
D03*
X115225Y498475D02*
G54D11*
D03*
X140625Y498475D02*
G54D11*
D03*
X166025Y498475D02*
G54D11*
D03*
X191425Y498475D02*
G54D11*
D03*
X216825Y498475D02*
G54D11*
D03*
X216825Y574675D02*
G54D11*
D03*
X191425Y574675D02*
G54D11*
D03*
X166025Y574675D02*
G54D11*
D03*
X140625Y574675D02*
G54D11*
D03*
X115225Y574675D02*
G54D11*
D03*
X89825Y574675D02*
G54D11*
D03*
X64425Y574675D02*
G54D11*
D03*
X39025Y574675D02*
G54D11*
D03*
G36*
X26525Y396338D02*
X46525Y396338D01*
X46525Y376338D01*
X26525Y376338D01*
X26525Y396338D01*
G37*
X61925Y386338D02*
G54D11*
D03*
X87325Y386338D02*
G54D11*
D03*
X112725Y386338D02*
G54D11*
D03*
X138125Y386338D02*
G54D11*
D03*
X163525Y386338D02*
G54D11*
D03*
X188925Y386338D02*
G54D11*
D03*
X214325Y386338D02*
G54D11*
D03*
X214325Y462538D02*
G54D11*
D03*
X188925Y462538D02*
G54D11*
D03*
X163525Y462538D02*
G54D11*
D03*
X138125Y462538D02*
G54D11*
D03*
X112725Y462538D02*
G54D11*
D03*
X87325Y462538D02*
G54D11*
D03*
X61925Y462538D02*
G54D11*
D03*
X36525Y462538D02*
G54D11*
D03*
G36*
X26525Y281338D02*
X46525Y281338D01*
X46525Y261338D01*
X26525Y261338D01*
X26525Y281338D01*
G37*
X61925Y271338D02*
G54D11*
D03*
X87325Y271338D02*
G54D11*
D03*
X112725Y271338D02*
G54D11*
D03*
X138125Y271338D02*
G54D11*
D03*
X163525Y271338D02*
G54D11*
D03*
X188925Y271338D02*
G54D11*
D03*
X214325Y271338D02*
G54D11*
D03*
X214325Y347538D02*
G54D11*
D03*
X188925Y347538D02*
G54D11*
D03*
X163525Y347538D02*
G54D11*
D03*
X138125Y347538D02*
G54D11*
D03*
X112725Y347538D02*
G54D11*
D03*
X87325Y347538D02*
G54D11*
D03*
X61925Y347538D02*
G54D11*
D03*
X36525Y347538D02*
G54D11*
D03*
G36*
X26525Y168838D02*
X46525Y168838D01*
X46525Y148838D01*
X26525Y148838D01*
X26525Y168838D01*
G37*
X61925Y158838D02*
G54D11*
D03*
X87325Y158838D02*
G54D11*
D03*
X112725Y158838D02*
G54D11*
D03*
X138125Y158838D02*
G54D11*
D03*
X163525Y158838D02*
G54D11*
D03*
X188925Y158838D02*
G54D11*
D03*
X214325Y158838D02*
G54D11*
D03*
X214325Y235038D02*
G54D11*
D03*
X188925Y235038D02*
G54D11*
D03*
X163525Y235038D02*
G54D11*
D03*
X138125Y235038D02*
G54D11*
D03*
X112725Y235038D02*
G54D11*
D03*
X87325Y235038D02*
G54D11*
D03*
X61925Y235038D02*
G54D11*
D03*
X36525Y235038D02*
G54D11*
D03*
G36*
X284912Y962138D02*
X304912Y962138D01*
X304912Y942138D01*
X284912Y942138D01*
X284912Y962138D01*
G37*
X320312Y952138D02*
G54D11*
D03*
X345712Y952138D02*
G54D11*
D03*
X371112Y952138D02*
G54D11*
D03*
X396512Y952138D02*
G54D11*
D03*
X421912Y952138D02*
G54D11*
D03*
X447312Y952138D02*
G54D11*
D03*
X472712Y952138D02*
G54D11*
D03*
X472712Y1028338D02*
G54D11*
D03*
X447312Y1028338D02*
G54D11*
D03*
X421912Y1028338D02*
G54D11*
D03*
X396512Y1028338D02*
G54D11*
D03*
X371112Y1028338D02*
G54D11*
D03*
X345712Y1028338D02*
G54D11*
D03*
X320312Y1028338D02*
G54D11*
D03*
X294912Y1028338D02*
G54D11*
D03*
G36*
X284912Y847838D02*
X304912Y847838D01*
X304912Y827838D01*
X284912Y827838D01*
X284912Y847838D01*
G37*
X320312Y837838D02*
G54D11*
D03*
X345712Y837838D02*
G54D11*
D03*
X371112Y837838D02*
G54D11*
D03*
X396512Y837838D02*
G54D11*
D03*
X421912Y837838D02*
G54D11*
D03*
X447312Y837838D02*
G54D11*
D03*
X472712Y837838D02*
G54D11*
D03*
X472712Y914038D02*
G54D11*
D03*
X447312Y914038D02*
G54D11*
D03*
X421912Y914038D02*
G54D11*
D03*
X396512Y914038D02*
G54D11*
D03*
X371112Y914038D02*
G54D11*
D03*
X345712Y914038D02*
G54D11*
D03*
X320312Y914038D02*
G54D11*
D03*
X294912Y914038D02*
G54D11*
D03*
G36*
X284912Y735125D02*
X304912Y735125D01*
X304912Y715125D01*
X284912Y715125D01*
X284912Y735125D01*
G37*
X320312Y725125D02*
G54D11*
D03*
X345712Y725125D02*
G54D11*
D03*
X371112Y725125D02*
G54D11*
D03*
X396512Y725125D02*
G54D11*
D03*
X421912Y725125D02*
G54D11*
D03*
X447312Y725125D02*
G54D11*
D03*
X472712Y725125D02*
G54D11*
D03*
X472712Y801325D02*
G54D11*
D03*
X447312Y801325D02*
G54D11*
D03*
X421912Y801325D02*
G54D11*
D03*
X396512Y801325D02*
G54D11*
D03*
X371112Y801325D02*
G54D11*
D03*
X345712Y801325D02*
G54D11*
D03*
X320312Y801325D02*
G54D11*
D03*
X294912Y801325D02*
G54D11*
D03*
G36*
X284000Y620912D02*
X304000Y620912D01*
X304000Y600912D01*
X284000Y600912D01*
X284000Y620912D01*
G37*
X319400Y610912D02*
G54D11*
D03*
X344800Y610912D02*
G54D11*
D03*
X370200Y610912D02*
G54D11*
D03*
X395600Y610912D02*
G54D11*
D03*
X421000Y610912D02*
G54D11*
D03*
X446400Y610912D02*
G54D11*
D03*
X471800Y610912D02*
G54D11*
D03*
X471800Y687112D02*
G54D11*
D03*
X446400Y687112D02*
G54D11*
D03*
X421000Y687112D02*
G54D11*
D03*
X395600Y687112D02*
G54D11*
D03*
X370200Y687112D02*
G54D11*
D03*
X344800Y687112D02*
G54D11*
D03*
X319400Y687112D02*
G54D11*
D03*
X294000Y687112D02*
G54D11*
D03*
G36*
X282412Y509787D02*
X302412Y509787D01*
X302412Y489787D01*
X282412Y489787D01*
X282412Y509787D01*
G37*
X317812Y499787D02*
G54D11*
D03*
X343212Y499787D02*
G54D11*
D03*
X368612Y499787D02*
G54D11*
D03*
X394012Y499787D02*
G54D11*
D03*
X419412Y499787D02*
G54D11*
D03*
X444812Y499787D02*
G54D11*
D03*
X470212Y499787D02*
G54D11*
D03*
X470212Y575988D02*
G54D11*
D03*
X444812Y575988D02*
G54D11*
D03*
X419412Y575988D02*
G54D11*
D03*
X394012Y575988D02*
G54D11*
D03*
X368612Y575988D02*
G54D11*
D03*
X343212Y575988D02*
G54D11*
D03*
X317812Y575988D02*
G54D11*
D03*
X292412Y575988D02*
G54D11*
D03*
G36*
X282412Y395488D02*
X302412Y395488D01*
X302412Y375488D01*
X282412Y375488D01*
X282412Y395488D01*
G37*
X317812Y385488D02*
G54D11*
D03*
X343212Y385488D02*
G54D11*
D03*
X368612Y385488D02*
G54D11*
D03*
X394012Y385488D02*
G54D11*
D03*
X419412Y385488D02*
G54D11*
D03*
X444812Y385488D02*
G54D11*
D03*
X470212Y385488D02*
G54D11*
D03*
X470212Y461688D02*
G54D11*
D03*
X444812Y461688D02*
G54D11*
D03*
X419412Y461688D02*
G54D11*
D03*
X394012Y461688D02*
G54D11*
D03*
X368612Y461688D02*
G54D11*
D03*
X343212Y461688D02*
G54D11*
D03*
X317812Y461688D02*
G54D11*
D03*
X292412Y461688D02*
G54D11*
D03*
G36*
X282412Y281188D02*
X302412Y281188D01*
X302412Y261188D01*
X282412Y261188D01*
X282412Y281188D01*
G37*
X317812Y271188D02*
G54D11*
D03*
X343212Y271188D02*
G54D11*
D03*
X368612Y271188D02*
G54D11*
D03*
X394012Y271188D02*
G54D11*
D03*
X419412Y271188D02*
G54D11*
D03*
X444812Y271188D02*
G54D11*
D03*
X470212Y271188D02*
G54D11*
D03*
X470212Y347388D02*
G54D11*
D03*
X444812Y347388D02*
G54D11*
D03*
X419412Y347388D02*
G54D11*
D03*
X394012Y347388D02*
G54D11*
D03*
X368612Y347388D02*
G54D11*
D03*
X343212Y347388D02*
G54D11*
D03*
X317812Y347388D02*
G54D11*
D03*
X292412Y347388D02*
G54D11*
D03*
G36*
X280825Y168475D02*
X300825Y168475D01*
X300825Y148475D01*
X280825Y148475D01*
X280825Y168475D01*
G37*
X316225Y158475D02*
G54D11*
D03*
X341625Y158475D02*
G54D11*
D03*
X367025Y158475D02*
G54D11*
D03*
X392425Y158475D02*
G54D11*
D03*
X417825Y158475D02*
G54D11*
D03*
X443225Y158475D02*
G54D11*
D03*
X468625Y158475D02*
G54D11*
D03*
X468625Y234675D02*
G54D11*
D03*
X443225Y234675D02*
G54D11*
D03*
X417825Y234675D02*
G54D11*
D03*
X392425Y234675D02*
G54D11*
D03*
X367025Y234675D02*
G54D11*
D03*
X341625Y234675D02*
G54D11*
D03*
X316225Y234675D02*
G54D11*
D03*
X290825Y234675D02*
G54D11*
D03*
X265200Y67300D02*
G54D12*
D03*
X265200Y92700D02*
G54D12*
D03*
G36*
X880850Y427750D02*
X900850Y427750D01*
X900850Y407750D01*
X880850Y407750D01*
X880850Y427750D01*
G37*
X916250Y417750D02*
G54D11*
D03*
X941650Y417750D02*
G54D11*
D03*
X967050Y417750D02*
G54D11*
D03*
X992450Y417750D02*
G54D11*
D03*
X1017850Y417750D02*
G54D11*
D03*
X1043250Y417750D02*
G54D11*
D03*
X1068650Y417750D02*
G54D11*
D03*
X1094050Y417750D02*
G54D11*
D03*
X1119450Y417750D02*
G54D11*
D03*
X1144850Y417750D02*
G54D11*
D03*
X1170250Y417750D02*
G54D11*
D03*
X1195650Y417750D02*
G54D11*
D03*
X1221050Y417750D02*
G54D11*
D03*
X1246450Y417750D02*
G54D11*
D03*
X1271850Y417750D02*
G54D11*
D03*
X1297250Y417750D02*
G54D11*
D03*
X1322650Y417750D02*
G54D11*
D03*
X1348050Y417750D02*
G54D11*
D03*
X1373450Y417750D02*
G54D11*
D03*
X1373450Y570150D02*
G54D11*
D03*
X1348050Y570150D02*
G54D11*
D03*
X1322650Y570150D02*
G54D11*
D03*
X1297250Y570150D02*
G54D11*
D03*
X1271850Y570150D02*
G54D11*
D03*
X1246450Y570150D02*
G54D11*
D03*
X1221050Y570150D02*
G54D11*
D03*
X1195650Y570150D02*
G54D11*
D03*
X1170250Y570150D02*
G54D11*
D03*
X1144850Y570150D02*
G54D11*
D03*
X1119450Y570150D02*
G54D11*
D03*
X1094050Y570150D02*
G54D11*
D03*
X1068650Y570150D02*
G54D11*
D03*
X1043250Y570150D02*
G54D11*
D03*
X1017850Y570150D02*
G54D11*
D03*
X992450Y570150D02*
G54D11*
D03*
X967050Y570150D02*
G54D11*
D03*
X941650Y570150D02*
G54D11*
D03*
X916250Y570150D02*
G54D11*
D03*
X890850Y570150D02*
G54D11*
D03*
G36*
X877500Y198825D02*
X897500Y198825D01*
X897500Y178825D01*
X877500Y178825D01*
X877500Y198825D01*
G37*
X912900Y188825D02*
G54D11*
D03*
X938300Y188825D02*
G54D11*
D03*
X963700Y188825D02*
G54D11*
D03*
X989100Y188825D02*
G54D11*
D03*
X1014500Y188825D02*
G54D11*
D03*
X1039900Y188825D02*
G54D11*
D03*
X1039900Y265025D02*
G54D11*
D03*
X1014500Y265025D02*
G54D11*
D03*
X989100Y265025D02*
G54D11*
D03*
X963700Y265025D02*
G54D11*
D03*
X938300Y265025D02*
G54D11*
D03*
X912900Y265025D02*
G54D11*
D03*
X887500Y265025D02*
G54D11*
D03*
G36*
X877500Y300000D02*
X897500Y300000D01*
X897500Y280000D01*
X877500Y280000D01*
X877500Y300000D01*
G37*
X912900Y290000D02*
G54D11*
D03*
X938300Y290000D02*
G54D11*
D03*
X963700Y290000D02*
G54D11*
D03*
X989100Y290000D02*
G54D11*
D03*
X1014500Y290000D02*
G54D11*
D03*
X1039900Y290000D02*
G54D11*
D03*
X1065300Y290000D02*
G54D11*
D03*
X1090700Y290000D02*
G54D11*
D03*
X1116100Y290000D02*
G54D11*
D03*
X1116100Y366200D02*
G54D11*
D03*
X1090700Y366200D02*
G54D11*
D03*
X1065300Y366200D02*
G54D11*
D03*
X1039900Y366200D02*
G54D11*
D03*
X1014500Y366200D02*
G54D11*
D03*
X989100Y366200D02*
G54D11*
D03*
X963700Y366200D02*
G54D11*
D03*
X938300Y366200D02*
G54D11*
D03*
X912900Y366200D02*
G54D11*
D03*
X887500Y366200D02*
G54D11*
D03*
G36*
X1134675Y628612D02*
X1154675Y628612D01*
X1154675Y608612D01*
X1134675Y608612D01*
X1134675Y628612D01*
G37*
X1170075Y618612D02*
G54D11*
D03*
X1195475Y618612D02*
G54D11*
D03*
X1220875Y618612D02*
G54D11*
D03*
X1246275Y618612D02*
G54D11*
D03*
X1271675Y618612D02*
G54D11*
D03*
X1297075Y618612D02*
G54D11*
D03*
X1322475Y618612D02*
G54D11*
D03*
X1347875Y618612D02*
G54D11*
D03*
X1373275Y618612D02*
G54D11*
D03*
X1373275Y694812D02*
G54D11*
D03*
X1347875Y694812D02*
G54D11*
D03*
X1322475Y694812D02*
G54D11*
D03*
X1297075Y694812D02*
G54D11*
D03*
X1271675Y694812D02*
G54D11*
D03*
X1246275Y694812D02*
G54D11*
D03*
X1220875Y694812D02*
G54D11*
D03*
X1195475Y694812D02*
G54D11*
D03*
X1170075Y694812D02*
G54D11*
D03*
X1144675Y694812D02*
G54D11*
D03*
G36*
X626200Y958800D02*
X646200Y958800D01*
X646200Y938800D01*
X626200Y938800D01*
X626200Y958800D01*
G37*
X661600Y948800D02*
G54D11*
D03*
X687000Y948800D02*
G54D11*
D03*
X712400Y948800D02*
G54D11*
D03*
X737800Y948800D02*
G54D11*
D03*
X763200Y948800D02*
G54D11*
D03*
X788600Y948800D02*
G54D11*
D03*
X814000Y948800D02*
G54D11*
D03*
X814000Y1025000D02*
G54D11*
D03*
X788600Y1025000D02*
G54D11*
D03*
X763200Y1025000D02*
G54D11*
D03*
X737800Y1025000D02*
G54D11*
D03*
X712400Y1025000D02*
G54D11*
D03*
X687000Y1025000D02*
G54D11*
D03*
X661600Y1025000D02*
G54D11*
D03*
X636200Y1025000D02*
G54D11*
D03*
G36*
X626588Y844088D02*
X646588Y844088D01*
X646588Y824088D01*
X626588Y824088D01*
X626588Y844088D01*
G37*
X661988Y834088D02*
G54D11*
D03*
X687388Y834088D02*
G54D11*
D03*
X712788Y834088D02*
G54D11*
D03*
X738188Y834088D02*
G54D11*
D03*
X763588Y834088D02*
G54D11*
D03*
X788988Y834088D02*
G54D11*
D03*
X788988Y910288D02*
G54D11*
D03*
X763588Y910288D02*
G54D11*
D03*
X738188Y910288D02*
G54D11*
D03*
X712788Y910288D02*
G54D11*
D03*
X687388Y910288D02*
G54D11*
D03*
X661988Y910288D02*
G54D11*
D03*
X636588Y910288D02*
G54D11*
D03*
G36*
X626400Y732500D02*
X646400Y732500D01*
X646400Y712500D01*
X626400Y712500D01*
X626400Y732500D01*
G37*
X661800Y722500D02*
G54D11*
D03*
X687200Y722500D02*
G54D11*
D03*
X712600Y722500D02*
G54D11*
D03*
X738000Y722500D02*
G54D11*
D03*
X763400Y722500D02*
G54D11*
D03*
X788800Y722500D02*
G54D11*
D03*
X788800Y798700D02*
G54D11*
D03*
X763400Y798700D02*
G54D11*
D03*
X738000Y798700D02*
G54D11*
D03*
X712600Y798700D02*
G54D11*
D03*
X687200Y798700D02*
G54D11*
D03*
X661800Y798700D02*
G54D11*
D03*
X636400Y798700D02*
G54D11*
D03*
G36*
X892900Y755600D02*
X912900Y755600D01*
X912900Y735600D01*
X892900Y735600D01*
X892900Y755600D01*
G37*
X928300Y745600D02*
G54D11*
D03*
X953700Y745600D02*
G54D11*
D03*
X979100Y745600D02*
G54D11*
D03*
X1004500Y745600D02*
G54D11*
D03*
X1029900Y745600D02*
G54D11*
D03*
X1055300Y745600D02*
G54D11*
D03*
X1080700Y745600D02*
G54D11*
D03*
X1080700Y821800D02*
G54D11*
D03*
X1055300Y821800D02*
G54D11*
D03*
X1029900Y821800D02*
G54D11*
D03*
X1004500Y821800D02*
G54D11*
D03*
X979100Y821800D02*
G54D11*
D03*
X953700Y821800D02*
G54D11*
D03*
X928300Y821800D02*
G54D11*
D03*
X902900Y821800D02*
G54D11*
D03*
G36*
X867500Y880000D02*
X887500Y880000D01*
X887500Y860000D01*
X867500Y860000D01*
X867500Y880000D01*
G37*
X902900Y870000D02*
G54D11*
D03*
X928300Y870000D02*
G54D11*
D03*
X953700Y870000D02*
G54D11*
D03*
X979100Y870000D02*
G54D11*
D03*
X1004500Y870000D02*
G54D11*
D03*
X1029900Y870000D02*
G54D11*
D03*
X1055300Y870000D02*
G54D11*
D03*
X1080700Y870000D02*
G54D11*
D03*
X1106100Y870000D02*
G54D11*
D03*
X1131500Y870000D02*
G54D11*
D03*
X1156900Y870000D02*
G54D11*
D03*
X1182300Y870000D02*
G54D11*
D03*
X1207700Y870000D02*
G54D11*
D03*
X1207700Y1022400D02*
G54D11*
D03*
X1182300Y1022400D02*
G54D11*
D03*
X1156900Y1022400D02*
G54D11*
D03*
X1131500Y1022400D02*
G54D11*
D03*
X1106100Y1022400D02*
G54D11*
D03*
X1080700Y1022400D02*
G54D11*
D03*
X1055300Y1022400D02*
G54D11*
D03*
X1029900Y1022400D02*
G54D11*
D03*
X1004500Y1022400D02*
G54D11*
D03*
X979100Y1022400D02*
G54D11*
D03*
X953700Y1022400D02*
G54D11*
D03*
X928300Y1022400D02*
G54D11*
D03*
X902900Y1022400D02*
G54D11*
D03*
X877500Y1022400D02*
G54D11*
D03*
G36*
X1237500Y952500D02*
X1257500Y952500D01*
X1257500Y932500D01*
X1237500Y932500D01*
X1237500Y952500D01*
G37*
X1272900Y942500D02*
G54D11*
D03*
X1298300Y942500D02*
G54D11*
D03*
X1323700Y942500D02*
G54D11*
D03*
X1349100Y942500D02*
G54D11*
D03*
X1374500Y942500D02*
G54D11*
D03*
X1399900Y942500D02*
G54D11*
D03*
X1399900Y1018700D02*
G54D11*
D03*
X1374500Y1018700D02*
G54D11*
D03*
X1349100Y1018700D02*
G54D11*
D03*
X1323700Y1018700D02*
G54D11*
D03*
X1298300Y1018700D02*
G54D11*
D03*
X1272900Y1018700D02*
G54D11*
D03*
X1247500Y1018700D02*
G54D11*
D03*
G36*
X1210512Y754062D02*
X1230512Y754062D01*
X1230512Y734062D01*
X1210512Y734062D01*
X1210512Y754062D01*
G37*
X1245912Y744062D02*
G54D11*
D03*
X1271312Y744062D02*
G54D11*
D03*
X1296712Y744062D02*
G54D11*
D03*
X1322112Y744062D02*
G54D11*
D03*
X1347512Y744062D02*
G54D11*
D03*
X1372912Y744062D02*
G54D11*
D03*
X1372912Y820262D02*
G54D11*
D03*
X1347512Y820262D02*
G54D11*
D03*
X1322112Y820262D02*
G54D11*
D03*
X1296712Y820262D02*
G54D11*
D03*
X1271312Y820262D02*
G54D11*
D03*
X1245912Y820262D02*
G54D11*
D03*
X1220512Y820262D02*
G54D11*
D03*
G36*
X842500Y630000D02*
X862500Y630000D01*
X862500Y610000D01*
X842500Y610000D01*
X842500Y630000D01*
G37*
X877900Y620000D02*
G54D11*
D03*
X903300Y620000D02*
G54D11*
D03*
X928700Y620000D02*
G54D11*
D03*
X954100Y620000D02*
G54D11*
D03*
X979500Y620000D02*
G54D11*
D03*
X1004900Y620000D02*
G54D11*
D03*
X1030300Y620000D02*
G54D11*
D03*
X1055700Y620000D02*
G54D11*
D03*
X1081100Y620000D02*
G54D11*
D03*
X1081100Y696200D02*
G54D11*
D03*
X1055700Y696200D02*
G54D11*
D03*
X1030300Y696200D02*
G54D11*
D03*
X1004900Y696200D02*
G54D11*
D03*
X979500Y696200D02*
G54D11*
D03*
X954100Y696200D02*
G54D11*
D03*
X928700Y696200D02*
G54D11*
D03*
X903300Y696200D02*
G54D11*
D03*
X877900Y696200D02*
G54D11*
D03*
X852500Y696200D02*
G54D11*
D03*
G36*
X1207500Y197500D02*
X1227500Y197500D01*
X1227500Y177500D01*
X1207500Y177500D01*
X1207500Y197500D01*
G37*
X1242900Y187500D02*
G54D11*
D03*
X1268300Y187500D02*
G54D11*
D03*
X1293700Y187500D02*
G54D11*
D03*
X1319100Y187500D02*
G54D11*
D03*
X1344500Y187500D02*
G54D11*
D03*
X1369900Y187500D02*
G54D11*
D03*
X1369900Y263700D02*
G54D11*
D03*
X1344500Y263700D02*
G54D11*
D03*
X1319100Y263700D02*
G54D11*
D03*
X1293700Y263700D02*
G54D11*
D03*
X1268300Y263700D02*
G54D11*
D03*
X1242900Y263700D02*
G54D11*
D03*
X1217500Y263700D02*
G54D11*
D03*
G36*
X1182500Y300000D02*
X1202500Y300000D01*
X1202500Y280000D01*
X1182500Y280000D01*
X1182500Y300000D01*
G37*
X1217900Y290000D02*
G54D11*
D03*
X1243300Y290000D02*
G54D11*
D03*
X1268700Y290000D02*
G54D11*
D03*
X1294100Y290000D02*
G54D11*
D03*
X1319500Y290000D02*
G54D11*
D03*
X1344900Y290000D02*
G54D11*
D03*
X1370300Y290000D02*
G54D11*
D03*
X1370300Y366200D02*
G54D11*
D03*
X1344900Y366200D02*
G54D11*
D03*
X1319500Y366200D02*
G54D11*
D03*
X1294100Y366200D02*
G54D11*
D03*
X1268700Y366200D02*
G54D11*
D03*
X1243300Y366200D02*
G54D11*
D03*
X1217900Y366200D02*
G54D11*
D03*
X1192500Y366200D02*
G54D11*
D03*
G36*
X697050Y658250D02*
X697050Y638250D01*
X677050Y638250D01*
X677050Y658250D01*
X697050Y658250D01*
G37*
X687050Y622850D02*
G54D11*
D03*
X687050Y597450D02*
G54D11*
D03*
X687050Y572050D02*
G54D11*
D03*
X687050Y546650D02*
G54D11*
D03*
X687050Y521250D02*
G54D11*
D03*
X687050Y495850D02*
G54D11*
D03*
X687050Y470450D02*
G54D11*
D03*
X763250Y470450D02*
G54D11*
D03*
X763250Y495850D02*
G54D11*
D03*
X763250Y521250D02*
G54D11*
D03*
X763250Y546650D02*
G54D11*
D03*
X763250Y572050D02*
G54D11*
D03*
X763250Y597450D02*
G54D11*
D03*
X763250Y622850D02*
G54D11*
D03*
X763250Y648250D02*
G54D11*
D03*
G36*
X695800Y429500D02*
X695800Y409500D01*
X675800Y409500D01*
X675800Y429500D01*
X695800Y429500D01*
G37*
X685800Y394100D02*
G54D11*
D03*
X685800Y368700D02*
G54D11*
D03*
X685800Y343300D02*
G54D11*
D03*
X685800Y317900D02*
G54D11*
D03*
X685800Y292500D02*
G54D11*
D03*
X685800Y267100D02*
G54D11*
D03*
X685800Y241700D02*
G54D11*
D03*
X762000Y241700D02*
G54D11*
D03*
X762000Y267100D02*
G54D11*
D03*
X762000Y292500D02*
G54D11*
D03*
X762000Y317900D02*
G54D11*
D03*
X762000Y343300D02*
G54D11*
D03*
X762000Y368700D02*
G54D11*
D03*
X762000Y394100D02*
G54D11*
D03*
X762000Y419500D02*
G54D11*
D03*
G36*
X880100Y402400D02*
X894900Y402400D01*
X894900Y387600D01*
X880100Y387600D01*
X880100Y402400D01*
G37*
X912900Y395000D02*
G54D13*
D03*
X938300Y395000D02*
G54D13*
D03*
X963700Y395000D02*
G54D13*
D03*
X989100Y395000D02*
G54D13*
D03*
X1014500Y395000D02*
G54D13*
D03*
X1039900Y395000D02*
G54D13*
D03*
X1065300Y395000D02*
G54D13*
D03*
G36*
X616700Y694200D02*
X616700Y679400D01*
X601900Y679400D01*
X601900Y694200D01*
X616700Y694200D01*
G37*
X609300Y661400D02*
G54D13*
D03*
X609300Y636000D02*
G54D13*
D03*
X609300Y610600D02*
G54D13*
D03*
X609300Y585200D02*
G54D13*
D03*
X609300Y559800D02*
G54D13*
D03*
X609300Y534400D02*
G54D13*
D03*
X609300Y509000D02*
G54D13*
D03*
X609300Y483600D02*
G54D13*
D03*
X609300Y458200D02*
G54D13*
D03*
G36*
X616700Y427500D02*
X616700Y412700D01*
X601900Y412700D01*
X601900Y427500D01*
X616700Y427500D01*
G37*
X609300Y394700D02*
G54D13*
D03*
X609300Y369300D02*
G54D13*
D03*
X609300Y343900D02*
G54D13*
D03*
X609300Y318500D02*
G54D13*
D03*
X609300Y293100D02*
G54D13*
D03*
X609300Y267700D02*
G54D13*
D03*
X609300Y242300D02*
G54D13*
D03*
X609300Y216900D02*
G54D13*
D03*
X609300Y191500D02*
G54D13*
D03*
G36*
X548100Y731900D02*
X566900Y731900D01*
X566900Y713100D01*
X548100Y713100D01*
X548100Y731900D01*
G37*
X557500Y747900D02*
G54D14*
D03*
X582900Y722500D02*
G54D14*
D03*
X582900Y747900D02*
G54D14*
D03*
X660400Y44450D02*
G54D15*
D03*
X685800Y44450D02*
G54D15*
D03*
X711200Y44450D02*
G54D15*
D03*
X736600Y44450D02*
G54D15*
D03*
X762000Y44450D02*
G54D15*
D03*
X787400Y44450D02*
G54D15*
D03*
X812800Y44450D02*
G54D15*
D03*
X838200Y44450D02*
G54D15*
D03*
X863600Y44450D02*
G54D15*
D03*
X889000Y44450D02*
G54D15*
D03*
X914400Y44450D02*
G54D15*
D03*
X939800Y44450D02*
G54D15*
D03*
X965200Y44450D02*
G54D15*
D03*
X990600Y44450D02*
G54D15*
D03*
X1016000Y44450D02*
G54D15*
D03*
X1041400Y44450D02*
G54D15*
D03*
X1066800Y44450D02*
G54D15*
D03*
X1092200Y44450D02*
G54D15*
D03*
X1117600Y44450D02*
G54D15*
D03*
X1143000Y44450D02*
G54D15*
D03*
X1168400Y44450D02*
G54D15*
D03*
X1193800Y44450D02*
G54D15*
D03*
X635000Y44450D02*
G54D15*
D03*
X609600Y44450D02*
G54D15*
D03*
X584200Y44450D02*
G54D15*
D03*
X558800Y44450D02*
G54D15*
D03*
X533400Y44450D02*
G54D15*
D03*
X508000Y44450D02*
G54D15*
D03*
X482600Y44450D02*
G54D15*
D03*
X457200Y44450D02*
G54D15*
D03*
X431800Y44450D02*
G54D15*
D03*
M02*
